<svg width="97" height="97" viewBox="0 0 97 97" fill="none" xmlns="http://www.w3.org/2000/svg">
<rect x="8" y="8" width="81" height="81" rx="20" fill="#FAFAFA"/>
<path d="M33.5621 70.5977L39.8895 59.679L46.217 48.7988L52.5058 37.8802L53.5475 36.1501L54.0105 37.8802L55.9396 45.0696L53.779 48.7988L47.4516 59.679L41.1627 70.5977H48.7248L55.0522 59.679L58.3317 54.0275L59.875 59.679L62.8072 70.5977H69.5977L66.6654 59.679L63.7332 48.7988L62.9616 45.9923L67.6686 37.8802H60.801L60.5695 37.0728L58.1774 28.1534L57.8687 27H51.2712L51.1169 27.2307L44.9438 37.8802L38.6163 48.7988L32.3274 59.679L26 70.5977H33.5621Z" fill="black"/>
<rect x="4" y="4" width="89" height="89" rx="24" stroke="white" stroke-opacity="0.05" stroke-width="8"/>
</svg>
