<svg width="90" height="58" viewBox="0 0 90 58" fill="none" xmlns="http://www.w3.org/2000/svg">
<g clip-path="url(#clip0_222_12518)">
<rect x="6.25" y="6" width="45.8212" height="45.8212" rx="22.9106" fill="#F3BA2F"/>
<circle cx="28.8781" cy="28.9106" r="20.8278" fill="#F3BA2F"/>
<path d="M31.9131 38.5409V41.951L29.0103 43.6983L26.1901 41.951V38.5409L29.0103 40.2882L31.9131 38.5409ZM16.3813 26.7467L19.2015 28.494V34.3418L24.0578 37.315V40.725L16.3813 36.0891V26.7467ZM41.6393 26.7467V36.1032L33.8803 40.7391V37.3291L38.7366 34.3559V28.5081L41.6393 26.7467ZM33.8666 22.1107L36.7693 23.858V27.268L31.9131 30.2413V36.1736L29.0929 37.9209L26.2864 36.1736V30.2272L21.2513 27.254V23.8439L24.1541 22.0966L29.0103 25.0698L33.8666 22.1107ZM21.2513 29.7058L24.0715 31.4531V34.8631L21.2513 33.1158V29.7058ZM36.7693 29.7058V33.1158L33.9491 34.8631V31.4531L36.7693 29.7058ZM19.2015 19.1375L22.1043 20.8848L19.2015 22.6321V26.0421L16.3813 24.2948V20.8848L19.2015 19.1375ZM38.8191 19.1375L41.7218 20.8848V24.2948L38.8191 26.0421V22.6321L35.9989 20.8848L38.8191 19.1375ZM29.0103 19.1375L31.9131 20.8848L29.0103 22.6321L26.1901 20.8848L29.0103 19.1375ZM29.0103 13.2897L36.7693 17.9256L33.9491 19.6729L29.0929 16.6997L24.1403 19.6729L21.3201 17.9256L29.0103 13.2897Z" fill="white"/>
</g>
<rect x="3.42153" y="3.17153" width="51.4781" height="51.4781" rx="25.739" stroke="#F3BA2F" stroke-opacity="0.08" stroke-width="5.65693"/>
<rect x="37.9287" y="6" width="45.8212" height="45.8212" rx="22.9106" fill="#E22440"/>
<circle cx="60.8395" cy="28.9106" r="20.8278" fill="url(#paint0_linear_222_12518)"/>
<g clip-path="url(#clip1_222_12518)">
<path d="M64.8816 40.8137L62.1812 38.1132C61.4143 37.3463 60.1742 37.3463 59.4155 38.1132L56.7151 40.8137C55.9238 41.6051 54.6348 41.6051 53.8434 40.8137L52.5381 39.5083L56.6743 35.3719C58.9505 33.0956 62.638 33.0956 64.9142 35.3719L69.0504 39.5083L67.7451 40.8137C66.9619 41.6051 65.6811 41.6051 64.8816 40.8137Z" fill="white"/>
<path d="M50.2206 37.1826L48.9153 35.8773C48.1239 35.0859 48.1239 33.7968 48.9153 33.0054L51.6157 30.3049C52.3826 29.538 52.3826 28.2979 51.6157 27.5391L48.9153 24.8386C48.1239 24.0472 48.1239 22.7582 48.9153 21.9668L50.2206 20.6614L54.3569 24.7978C56.633 27.0741 56.633 30.7618 54.3569 33.038L50.2206 37.1826Z" fill="white"/>
<path d="M60.8338 24.1545C59.3408 24.1545 57.8479 23.5915 56.7139 22.4493L52.5776 18.3129L53.883 17.0075C54.6743 16.2161 55.9633 16.2161 56.7547 17.0075L59.4551 19.708C60.2138 20.4667 61.462 20.4667 62.2207 19.708L64.9211 17.0075C65.7125 16.2161 67.0015 16.2161 67.7928 17.0075L69.0981 18.3129L64.9619 22.4493C63.8197 23.5752 62.3268 24.1545 60.8338 24.1545Z" fill="white"/>
<path d="M71.4156 37.1501L67.2794 33.0136C65.0032 30.7374 65.0032 27.0497 67.2794 24.7734L71.4156 20.637L72.721 21.9423C73.5123 22.7337 73.5123 24.0228 72.721 24.8142L70.0206 27.5147C69.2537 28.2816 69.2537 29.5217 70.0206 30.2805L72.721 32.981C73.5123 33.7724 73.5123 35.0615 72.721 35.8528L71.4156 37.1501Z" fill="white"/>
</g>
<rect x="35.1002" y="3.17153" width="51.4781" height="51.4781" rx="25.739" stroke="#E22440" stroke-opacity="0.2" stroke-width="5.65693"/>
<defs>
<linearGradient id="paint0_linear_222_12518" x1="53.5216" y1="13.7119" x2="111.502" y2="-17.8113" gradientUnits="userSpaceOnUse">
<stop stop-color="#E22440"/>
</linearGradient>
<clipPath id="clip0_222_12518">
<rect x="6.25" y="6" width="45.8212" height="45.8212" rx="22.9106" fill="white"/>
</clipPath>
<clipPath id="clip1_222_12518">
<rect width="24.9934" height="24.9934" fill="white" transform="translate(48.3428 16.4139)"/>
</clipPath>
</defs>
</svg>
