<svg width="33" height="32" viewBox="0 0 33 32" fill="none" xmlns="http://www.w3.org/2000/svg">
<path d="M22.7756 3.05708C22.652 2.93303 22.5051 2.83466 22.3433 2.76762C22.1815 2.70057 22.0081 2.66619 21.833 2.66644H11.1671C10.992 2.66619 10.8186 2.70057 10.6568 2.76762C10.495 2.83466 10.3481 2.93303 10.2245 3.05708L3.55836 9.72324C3.43432 9.84684 3.33594 9.99375 3.2689 10.1555C3.20186 10.3173 3.16747 10.4907 3.16773 10.6658V21.3317C3.16773 21.6863 3.30772 22.025 3.55836 22.2743L10.2245 28.9404C10.3481 29.0645 10.495 29.1629 10.6568 29.2299C10.8186 29.2969 10.992 29.3313 11.1671 29.3311H21.833C22.1876 29.3311 22.5262 29.1911 22.7756 28.9404L29.4417 22.2743C29.5658 22.1507 29.6641 22.0038 29.7312 21.842C29.7982 21.6802 29.8326 21.5068 29.8324 21.3317V10.6658C29.8326 10.4907 29.7982 10.3173 29.7312 10.1555C29.6641 9.99375 29.5658 9.84684 29.4417 9.72324L22.7756 3.05708ZM17.8333 22.6649H15.1668V19.9985H17.8333V22.6649ZM17.8333 17.332H15.1668V9.3326H17.8333V17.332Z" fill="url(#paint0_linear_1428_5159)"/>
<path d="M3.2439 21.0988V10.8966C3.2439 10.3662 3.45461 9.85745 3.82968 9.48238L9.96898 3.34308C10.3441 2.96801 10.8528 2.75729 11.3832 2.75729H21.6191C22.1496 2.75729 22.6583 2.96801 23.0333 3.34308L29.1726 9.48238C29.5477 9.85745 29.7584 10.3662 29.7584 10.8966V21.0988C29.7584 21.6292 29.5477 22.1379 29.1726 22.513L23.0333 28.6523C22.6583 29.0274 22.1496 29.2381 21.6191 29.2381H11.3832C10.8528 29.2381 10.3441 29.0274 9.96898 28.6523L3.82968 22.513C3.45461 22.1379 3.2439 21.6292 3.2439 21.0988Z" stroke="url(#paint1_linear_1428_5159)"/>
<defs>
<linearGradient id="paint0_linear_1428_5159" x1="16.5" y1="2.66644" x2="16.5" y2="29.3311" gradientUnits="userSpaceOnUse">
<stop stop-color="#FF3654"/>
<stop offset="1" stop-color="#E22440"/>
</linearGradient>
<linearGradient id="paint1_linear_1428_5159" x1="16.5012" y1="2.75729" x2="16.5012" y2="29.2381" gradientUnits="userSpaceOnUse">
<stop stop-color="#FF634E"/>
<stop offset="1" stop-color="#BE1D35"/>
</linearGradient>
</defs>
</svg>
