<svg width="12" height="12" viewBox="0 0 12 12" fill="none" xmlns="http://www.w3.org/2000/svg">
<path fill-rule="evenodd" clip-rule="evenodd" d="M1.80769 0.343186C1.41717 -0.0473382 0.784003 -0.0473382 0.393479 0.343186C0.00295479 0.73371 0.00295477 1.36688 0.393479 1.7574L4.63617 6.00009L0.393585 10.2427C0.00306043 10.6332 0.00306074 11.2664 0.393585 11.6569C0.784109 12.0474 1.41727 12.0474 1.8078 11.6569L6.05039 7.41431L10.293 11.6569C10.6835 12.0474 11.3167 12.0474 11.7072 11.6569C12.0977 11.2664 12.0977 10.6332 11.7072 10.2427L7.4646 6.00009L11.7073 1.7574C12.0978 1.36688 12.0978 0.73371 11.7073 0.343186C11.3168 -0.0473382 10.6836 -0.0473382 10.2931 0.343186L6.05039 4.58588L1.80769 0.343186Z" fill="#EBEFF9"/>
</svg>
