<svg width="22" height="22" viewBox="0 0 22 22" fill="none" xmlns="http://www.w3.org/2000/svg">
<circle cx="11" cy="11" r="10" fill="white"/>
<g clip-path="url(#clip0_1023_21457)">
<path d="M16.5942 8.18017L12.969 10.0854V12.2944L14.2159 11.6307V12.9118L10.7025 14.9405L7.8791 13.3097C7.66926 13.1885 7.49502 13.0143 7.3739 12.8044C7.25278 12.5946 7.18906 12.3565 7.18913 12.1142V8.85402L10.1031 7.17148C10.2853 7.06628 10.492 7.0109 10.7024 7.0109C10.9128 7.0109 11.1194 7.06628 11.3016 7.17148L14.2157 8.85402L15.9995 7.82396L11.4598 5.20278C11.2294 5.06993 10.968 5 10.702 5C10.436 5 10.1746 5.06993 9.94413 5.20278L5.40527 7.8243V13.1421C5.40528 13.3851 5.46925 13.6239 5.59076 13.8344C5.71226 14.0449 5.88702 14.2197 6.09748 14.3413L10.7027 17.0001L15.3014 14.3452C15.5139 14.2226 15.6903 14.0462 15.8129 13.8338C15.9355 13.6213 16.0001 13.3804 16 13.1351V10.6817L16.594 10.366V8.18017H16.5942Z" fill="#B94D4C"/>
</g>
<defs>
<clipPath id="clip0_1023_21457">
<rect width="12" height="12" fill="white" transform="translate(5 5)"/>
</clipPath>
</defs>
</svg>
