<svg width="15" height="16" viewBox="0 0 15 16" fill="none" xmlns="http://www.w3.org/2000/svg">
<mask id="mask0_1488_1302" style="mask-type:luminance" maskUnits="userSpaceOnUse" x="0" y="0" width="15" height="16">
<path d="M7.5018 14.6682C8.37765 14.6693 9.2451 14.4974 10.0543 14.1622C10.8635 13.827 11.5984 13.3352 12.2169 12.7151C12.8371 12.0965 13.3289 11.3616 13.6641 10.5524C13.9993 9.74321 14.1712 8.87576 14.1701 7.9999C14.1712 7.12405 13.9992 6.25661 13.664 5.44742C13.3289 4.63824 12.8371 3.90327 12.2169 3.28475C11.5984 2.66461 10.8635 2.17281 10.0543 1.83763C9.2451 1.50244 8.37765 1.33047 7.5018 1.33161C6.62594 1.33049 5.7585 1.50247 4.94932 1.83765C4.14013 2.17284 3.40516 2.66463 2.78664 3.28475C2.16652 3.90327 1.67473 4.63824 1.33955 5.44742C1.00436 6.25661 0.832385 7.12405 0.833502 7.9999C0.832367 8.87576 1.00433 9.74321 1.33952 10.5524C1.67471 11.3616 2.1665 12.0965 2.78664 12.7151C3.40516 13.3352 4.14013 13.827 4.94932 14.1622C5.7585 14.4973 6.62594 14.6693 7.5018 14.6682Z" fill="white" stroke="white" stroke-width="1.33366" stroke-linejoin="round"/>
<path d="M4.83447 8.00006L6.83496 10.0005L10.8359 5.99957" stroke="black" stroke-width="1.33366" stroke-linecap="round" stroke-linejoin="round"/>
</mask>
<g mask="url(#mask0_1488_1302)">
<path d="M-0.5 -0.00189209H15.5039V16.002H-0.5V-0.00189209Z" fill="#30fa9a"/>
</g>
</svg>
