<svg width="115" height="15" viewBox="0 0 115 15" fill="none" xmlns="http://www.w3.org/2000/svg">
<mask id="mask0_1023_21505" style="mask-type:luminance" maskUnits="userSpaceOnUse" x="0" y="0" width="115" height="15">
<path d="M115 0.3125H0V14.6875H115V0.3125Z" fill="white"/>
</mask>
<g mask="url(#mask0_1023_21505)">
<path d="M22.3622 10.1562L17.4475 1.63113C16.3701 -0.145708 13.7426 -0.164611 12.7029 1.70674L7.54259 10.5721C6.57851 12.1977 7.76937 14.2391 9.69747 14.2391H20.0371C21.9841 14.2391 23.4396 12.1409 22.3622 10.1562Z" fill="#253559"/>
<path d="M15.2734 10.8177L14.9709 10.2884C14.6874 9.79695 14.0636 8.73841 14.0636 8.73841L9.90506 1.51766C8.82762 -0.089059 6.27579 -0.221378 5.19834 1.8012L0.35929 10.175C-0.642545 11.9329 0.548315 14.2201 2.72211 14.2391H13.0051H17.3905H19.999C17.3338 14.258 16.4832 12.8781 15.2734 10.8177Z" fill="white"/>
<path d="M15.274 10.8176L14.9716 10.2884C14.6881 9.79689 14.0643 8.73834 14.0643 8.73834L11.3801 4.0127L7.52398 10.5908C6.56 12.2164 7.75083 14.2579 9.67893 14.2579H12.9868H17.3722H19.9997C17.3155 14.239 16.4838 12.878 15.274 10.8176Z" fill="url(#paint0_linear_1023_21505)"/>
<path d="M113.503 13.5772C112.803 13.5772 112.255 13.426 111.84 13.1613C111.404 12.8778 111.178 12.4619 111.178 11.8948V3.65332H112.274C112.671 3.65332 113.012 3.97466 113.012 4.39052V11.6491C113.012 11.668 113.012 12.0082 113.295 12.2918C113.465 12.4619 113.673 12.5564 113.956 12.5564H114.164C114.24 12.5564 114.316 12.632 114.316 12.7076V13.5961L113.503 13.5772Z" fill="white"/>
<path d="M89.8748 13.5768C88.7406 13.5768 87.8144 13.2744 87.1148 12.6695C86.7561 12.3671 86.5104 12.0268 86.3591 11.6487C86.2078 11.2707 86.1318 10.7225 86.1318 9.98533C86.1318 9.26705 86.2078 8.69993 86.3591 8.32186C86.4912 7.96276 86.737 7.64138 87.0963 7.33896C87.7952 6.73408 88.7214 6.43164 89.8556 6.43164C90.9899 6.43164 91.9161 6.73408 92.6156 7.33896C92.975 7.64138 93.2208 7.98166 93.3529 8.32186C93.5042 8.71882 93.5795 9.26705 93.5795 9.98533C93.5795 10.7225 93.5042 11.2707 93.3529 11.6487C93.2016 12.0268 92.9558 12.3671 92.5965 12.6695C91.9352 13.2744 91.0091 13.5768 89.8748 13.5768ZM89.8748 7.47128C88.6269 7.47128 88.0033 8.32186 88.0033 10.0042C88.0033 11.7055 88.6269 12.5561 89.8748 12.5561C91.122 12.5561 91.7463 11.7055 91.7463 10.0231C91.7463 8.32186 91.1035 7.47128 89.8748 7.47128Z" fill="white"/>
<path d="M97.7003 13.5772C96.7173 13.5772 95.8103 13.3125 95.0354 12.8022C94.9595 12.7265 94.8082 12.632 94.6192 12.5186C94.5816 12.4997 94.5439 12.443 94.5439 12.3863V3.65332H95.659C96.0561 3.65332 96.3963 3.99356 96.3963 4.39052V6.94236L96.7365 6.75334C97.1335 6.54541 97.6626 6.4509 98.3431 6.4509C99.5341 6.4509 100.441 6.81004 101.046 7.50941C101.575 8.13322 101.84 8.96492 101.84 9.98568C101.84 11.0064 101.538 11.8381 100.933 12.443C100.233 13.1991 99.1371 13.5772 97.7003 13.5772ZM97.8892 7.47163C97.4737 7.47163 97.0007 7.62284 96.4716 7.94422L96.3963 7.98201V12.0839L96.4716 12.1406C96.8878 12.4052 97.3792 12.5375 97.8892 12.5375C98.5696 12.5375 99.0995 12.254 99.4581 11.6869C99.7607 11.2332 99.9311 10.6473 99.9311 9.98568C99.9311 8.32222 99.2316 7.47163 97.8892 7.47163Z" fill="white"/>
<path d="M106.207 13.5579C104.127 13.5579 102.823 12.197 102.823 9.98533C102.823 7.79266 104.108 6.43164 106.169 6.43164C106.963 6.43164 107.643 6.63957 108.191 7.03653L108.305 7.11213V6.56396H109.76C109.855 6.56396 109.911 6.63957 109.911 6.71518V13.4256H108.286V12.8207L108.172 12.9152C107.719 13.3311 107 13.5579 106.207 13.5579ZM106.585 7.64138C105.28 7.64138 104.505 8.64325 104.505 9.98533C104.505 11.3274 105.28 12.3671 106.585 12.3671C107 12.3671 107.719 12.3293 108.286 11.7621L108.305 11.7433V8.30297L108.286 8.28408C107.889 7.83044 107.303 7.64138 106.585 7.64138Z" fill="white"/>
<path d="M39.0449 13.482V3.63379H47.2297V4.25758C47.2297 4.74904 46.8328 5.14599 46.3413 5.14599H41.0864V7.79233H46.3413V9.30458H41.0864V11.9509H46.3413C46.8328 11.9509 47.2297 12.3478 47.2297 12.8393V13.4631L39.0449 13.482Z" fill="white"/>
<path d="M58.9878 3.63379H57.0597C56.7006 3.63379 56.3792 3.78501 56.1524 4.06854L53.8274 6.99844L51.5024 4.08745C51.2756 3.80391 50.9542 3.65269 50.5951 3.65269H48.667L52.5798 8.56734L48.667 13.482H50.5951C50.9542 13.482 51.2756 13.3308 51.5024 13.0473L53.8274 10.1363L56.1713 13.0662C56.3981 13.3308 56.7195 13.5009 57.0786 13.5009H59.0067L55.0939 8.58624L58.9878 3.63379Z" fill="white"/>
<path d="M32.6378 12.4437L35.322 7.75586V13.4644H37.3635V3.61621H36.097C35.7 3.61621 35.322 3.82414 35.133 4.18328L31.9195 10.0431L28.7061 4.18328C28.517 3.82414 28.139 3.61621 27.742 3.61621H26.4756V13.4644H28.517V7.75586L31.2012 12.4437H32.6378Z" fill="white"/>
<path d="M64.3186 13.5959C61.4832 13.6337 59.1771 11.4032 59.1582 8.56784C59.1582 7.01783 59.6307 5.73245 60.5192 4.84404C61.4076 3.97452 62.693 3.50195 64.2241 3.50195C66.0198 3.50195 67.4375 4.12574 68.4582 5.33551L67.8156 5.88368C67.4186 6.22392 66.8326 6.24283 66.3979 5.92148C65.8308 5.48672 65.1125 5.27879 64.2997 5.27879C62.296 5.27879 61.1051 6.48856 61.1051 8.53005C61.1051 10.5904 62.3338 11.8569 64.2997 11.8569C65.1314 11.8569 65.8308 11.6301 66.3979 11.2142C66.8137 10.8928 67.3997 10.9118 67.8156 11.252L68.4582 11.8002C67.4375 12.991 66.0766 13.5959 64.3186 13.5959Z" fill="white"/>
<path d="M76.8885 13.5962C73.713 13.5962 71.7471 11.6682 71.7471 8.56808C71.7471 5.4681 73.713 3.54004 76.8509 3.54004C78.363 3.54004 79.6294 3.97479 80.6123 4.86322L80.14 5.39249C79.9319 5.61932 79.6294 5.75164 79.3268 5.75164C79.157 5.75164 78.9866 5.71383 78.8353 5.63822C78.2494 5.33578 77.5689 5.18456 76.8509 5.18456C74.8089 5.18456 73.5426 6.48884 73.5426 8.58705C73.5426 10.7041 74.8658 12.0084 76.983 12.0084C78.0036 12.0084 78.7977 11.8194 79.3836 11.4035L79.4213 11.3846V9.362H77.1719V8.7004C77.1719 8.20898 77.5689 7.81203 78.0604 7.81203H80.8389C80.9149 7.81203 80.9902 7.8876 80.9902 7.96324V12.3297C80.0264 13.1614 78.6464 13.5962 76.8885 13.5962Z" fill="white"/>
<path d="M84.6388 13.5772C83.9392 13.5772 83.3909 13.426 82.9754 13.1613C82.5407 12.8778 82.3135 12.4619 82.3135 11.8948V3.65332H83.4101C83.8071 3.65332 84.1473 3.97466 84.1473 4.39052V11.6491C84.1473 11.668 84.1473 12.0082 84.4307 12.2918C84.6012 12.4619 84.8086 12.5564 85.092 12.5564H85.3001C85.376 12.5564 85.4513 12.632 85.4513 12.7076V13.5961L84.6388 13.5772Z" fill="white"/>
</g>
<defs>
<linearGradient id="paint0_linear_1023_21505" x1="6.15162" y1="7.60189" x2="18.0977" y2="12.0165" gradientUnits="userSpaceOnUse">
<stop stop-color="#264CA2" stop-opacity="0"/>
<stop offset="1" stop-color="#234588"/>
</linearGradient>
</defs>
</svg>
