<svg width="23" height="15" viewBox="0 0 23 15" fill="none" xmlns="http://www.w3.org/2000/svg">
<path d="M22.3622 10.1562L17.4475 1.63113C16.3701 -0.145708 13.7426 -0.164611 12.7029 1.70674L7.54259 10.5721C6.57851 12.1977 7.76937 14.2391 9.69747 14.2391H20.0371C21.9841 14.2391 23.4396 12.1409 22.3622 10.1562Z" fill="#253559"/>
<path d="M15.2734 10.8177L14.9709 10.2884C14.6874 9.79695 14.0636 8.73841 14.0636 8.73841L9.90506 1.51766C8.82762 -0.089059 6.27579 -0.221378 5.19834 1.8012L0.35929 10.175C-0.642545 11.9329 0.548315 14.2201 2.72211 14.2391H13.0051H17.3905H19.999C17.3338 14.258 16.4832 12.8781 15.2734 10.8177Z" fill="white"/>
<path d="M15.274 10.8176L14.9716 10.2884C14.6881 9.79689 14.0643 8.73834 14.0643 8.73834L11.3801 4.0127L7.52398 10.5908C6.56 12.2164 7.75083 14.2579 9.67893 14.2579H12.9868H17.3722H19.9997C17.3155 14.239 16.4838 12.878 15.274 10.8176Z" fill="url(#paint0_linear_1064_920)"/>
<defs>
<linearGradient id="paint0_linear_1064_920" x1="6.15162" y1="7.60189" x2="18.0977" y2="12.0165" gradientUnits="userSpaceOnUse">
<stop stop-color="#264CA2" stop-opacity="0"/>
<stop offset="1" stop-color="#234588"/>
</linearGradient>
</defs>
</svg>
