<svg width="21" height="22" viewBox="0 0 21 22" fill="none" xmlns="http://www.w3.org/2000/svg">
<g clip-path="url(#clip0_1022_21391)">
<path fill-rule="evenodd" clip-rule="evenodd" d="M3.77603 3.3123C3.44479 1.58991 4.76972 0 6.49211 0C8.01577 0 9.27445 1.25867 9.27445 2.78233V6.22713C9.67192 6.22713 10.0694 6.16088 10.4669 6.16088C10.8644 6.16088 11.1956 6.16088 11.5931 6.22713V2.78233C11.5931 1.25867 12.8517 0 14.3754 0C16.0978 0 17.4227 1.58991 17.1577 3.3123L16.429 7.35331C19.0126 8.4795 21 10.4669 21 12.918V14.4416C21 16.4953 19.6751 18.2177 17.7539 19.3438C15.8328 20.5363 13.3155 21.1987 10.4669 21.1987C7.6183 21.1987 5.10095 20.5363 3.17981 19.3438C1.32492 18.2177 0 16.4953 0 14.4416V12.918C0 10.4669 1.92114 8.4795 4.50473 7.35331L3.77603 3.3123ZM15.4353 7.88328L16.2965 3.11356C16.4953 1.92114 15.6341 0.794953 14.3754 0.794953C13.3155 0.794953 12.4543 1.65615 12.4543 2.71609V7.08833C12.1893 7.02208 11.858 7.02208 11.5931 7.02208C11.1956 7.02208 10.8644 6.95584 10.4669 6.95584C10.0694 6.95584 9.67192 6.95584 9.27445 7.02208C9.00946 7.02208 8.67823 7.08833 8.41325 7.08833V2.78233C8.41325 1.7224 7.55205 0.861199 6.49211 0.861199C5.29968 0.861199 4.37224 1.98738 4.63722 3.17981L5.49842 7.94953C2.71609 9.00946 0.861199 10.8644 0.861199 12.9842V14.5079C0.861199 17.7539 5.16719 20.4038 10.4669 20.4038C15.7666 20.4038 20.0726 17.7539 20.0726 14.5079V12.9842C20.1388 10.7981 18.2839 8.94322 15.4353 7.88328Z" fill="#633001"/>
<path d="M20.1391 14.4416C20.1391 17.6877 15.8331 20.3375 10.5334 20.3375C5.23373 20.3375 0.927734 17.6877 0.927734 14.4416V12.918H20.2053V14.4416H20.1391Z" fill="#FEDC90"/>
<path fill-rule="evenodd" clip-rule="evenodd" d="M4.63751 3.17994C4.37253 1.98751 5.29997 0.861328 6.4924 0.861328C7.55234 0.861328 8.41354 1.72253 8.41354 2.78246V7.1547C9.076 7.08846 9.73846 7.02221 10.4672 7.02221C11.1296 7.02221 11.7921 7.08846 12.4545 7.1547V2.78246C12.4545 1.72253 13.3157 0.861328 14.3757 0.861328C15.5681 0.861328 16.4956 1.98751 16.2968 3.17994L15.4356 7.94966C18.218 9.00959 20.1391 10.8645 20.1391 12.9844C20.1391 16.2304 15.8331 18.8803 10.5334 18.8803C5.23373 18.8803 0.927734 16.2304 0.927734 12.9844C0.927734 10.8645 2.78262 9.00959 5.56496 7.94966L4.63751 3.17994Z" fill="#D1884F"/>
<path d="M7.81714 12.5206C7.81714 13.3818 7.35342 14.1105 6.7572 14.1105C6.16099 14.1105 5.69727 13.3818 5.69727 12.5206C5.69727 11.6594 6.16099 10.9307 6.7572 10.9307C7.35342 10.9307 7.81714 11.6594 7.81714 12.5206Z" fill="#633001"/>
<path d="M15.1707 12.5206C15.1707 13.3818 14.7069 14.1105 14.1107 14.1105C13.5145 14.1105 13.0508 13.3818 13.0508 12.5206C13.0508 11.6594 13.5145 10.9307 14.1107 10.9307C14.7069 10.9307 15.1707 11.6594 15.1707 12.5206Z" fill="#633001"/>
</g>
<defs>
<clipPath id="clip0_1022_21391">
<rect width="21" height="21.1987" fill="white"/>
</clipPath>
</defs>
</svg>
