<svg width="124" height="37" viewBox="0 0 124 37" fill="none" xmlns="http://www.w3.org/2000/svg">
<rect x="7.32959" y="8.03149" width="21.2558" height="21.2558" rx="10.6279" fill="#E22440"/>
<path d="M20.2214 25.2919L18.7167 23.7872C18.2894 23.3599 17.5984 23.3599 17.1757 23.7872L15.671 25.2919C15.23 25.7329 14.5118 25.7329 14.0708 25.2919L13.3435 24.5646L15.6483 22.2598C16.9165 20.9915 18.9713 20.9915 20.2396 22.2598L22.5443 24.5646L21.817 25.2919C21.3806 25.7329 20.6669 25.7329 20.2214 25.2919Z" fill="white"/>
<path d="M12.0524 23.2688L11.3251 22.5415C10.8841 22.1006 10.8841 21.3823 11.3251 20.9414L12.8298 19.4367C13.2571 19.0094 13.2571 18.3184 12.8298 17.8956L11.3251 16.391C10.8841 15.95 10.8841 15.2318 11.3251 14.7908L12.0524 14.0635L14.3572 16.3682C15.6255 17.6365 15.6255 19.6913 14.3572 20.9595L12.0524 23.2688Z" fill="white"/>
<path d="M17.9666 16.0092C17.1347 16.0092 16.3028 15.6955 15.671 15.0591L13.3662 12.7543L14.0935 12.027C14.5345 11.5861 15.2527 11.5861 15.6937 12.027L17.1984 13.5317C17.6211 13.9544 18.3167 13.9544 18.7394 13.5317L20.2441 12.027C20.685 11.5861 21.4033 11.5861 21.8442 12.027L22.5716 12.7543L20.2668 15.0591C19.6304 15.6864 18.7985 16.0092 17.9666 16.0092Z" fill="white"/>
<path d="M23.8627 23.2506L21.5579 20.9459C20.2896 19.6776 20.2896 17.6229 21.5579 16.3546L23.8627 14.0498L24.59 14.7771C25.0309 15.2181 25.0309 15.9363 24.59 16.3773L23.0853 17.882C22.658 18.3093 22.658 19.0002 23.0853 19.423L24.59 20.9277C25.0309 21.3686 25.0309 22.0869 24.59 22.5278L23.8627 23.2506Z" fill="white"/>
<path d="M32.8 14.8829V9.44995H34.7366C35.1593 9.44995 35.5095 9.52688 35.7871 9.68075C36.0648 9.83461 36.2726 10.0451 36.4105 10.3121C36.5485 10.5774 36.6175 10.8763 36.6175 11.2088C36.6175 11.543 36.5476 11.8437 36.4079 12.1107C36.2699 12.376 36.0612 12.5865 35.7818 12.7421C35.5042 12.896 35.1549 12.9729 34.734 12.9729H33.4022V12.2779H34.6597C34.9267 12.2779 35.1434 12.2319 35.3096 12.1399C35.4759 12.0462 35.5979 11.9188 35.6757 11.7579C35.7535 11.597 35.7924 11.4139 35.7924 11.2088C35.7924 11.0036 35.7535 10.8215 35.6757 10.6623C35.5979 10.5031 35.475 10.3784 35.307 10.2882C35.1407 10.198 34.9214 10.1529 34.6491 10.1529H33.6198V14.8829H32.8Z" fill="white" fill-opacity="0.4"/>
<path d="M39.3633 14.9652C38.9813 14.9652 38.6479 14.8776 38.3632 14.7025C38.0785 14.5274 37.8574 14.2825 37.7 13.9677C37.5426 13.6529 37.4639 13.285 37.4639 12.8641C37.4639 12.4414 37.5426 12.0718 37.7 11.7552C37.8574 11.4387 38.0785 11.1929 38.3632 11.0178C38.6479 10.8427 38.9813 10.7551 39.3633 10.7551C39.7453 10.7551 40.0787 10.8427 40.3634 11.0178C40.6482 11.1929 40.8692 11.4387 41.0266 11.7552C41.184 12.0718 41.2627 12.4414 41.2627 12.8641C41.2627 13.285 41.184 13.6529 41.0266 13.9677C40.8692 14.2825 40.6482 14.5274 40.3634 14.7025C40.0787 14.8776 39.7453 14.9652 39.3633 14.9652ZM39.366 14.2993C39.6136 14.2993 39.8187 14.2339 39.9814 14.103C40.1441 13.9721 40.2644 13.7979 40.3422 13.5804C40.4218 13.3629 40.4616 13.1232 40.4616 12.8615C40.4616 12.6015 40.4218 12.3627 40.3422 12.1452C40.2644 11.9259 40.1441 11.7499 39.9814 11.6173C39.8187 11.4847 39.6136 11.4183 39.366 11.4183C39.1166 11.4183 38.9097 11.4847 38.7452 11.6173C38.5825 11.7499 38.4614 11.9259 38.3818 12.1452C38.304 12.3627 38.265 12.6015 38.265 12.8615C38.265 13.1232 38.304 13.3629 38.3818 13.5804C38.4614 13.7979 38.5825 13.9721 38.7452 14.103C38.9097 14.2339 39.1166 14.2993 39.366 14.2993Z" fill="white" fill-opacity="0.4"/>
<path d="M43.0907 14.8829L41.8916 10.8082H42.7114L43.5099 13.8006H43.5497L44.3508 10.8082H45.1705L45.9664 13.7873H46.0062L46.7994 10.8082H47.6191L46.4227 14.8829H45.6135L44.7859 11.9409H44.7248L43.8972 14.8829H43.0907Z" fill="white" fill-opacity="0.4"/>
<path d="M50.1872 14.9652C49.7857 14.9652 49.44 14.8794 49.1499 14.7078C48.8617 14.5345 48.6388 14.2913 48.4814 13.9783C48.3258 13.6635 48.248 13.2948 48.248 12.8721C48.248 12.4547 48.3258 12.0869 48.4814 11.7685C48.6388 11.4502 48.8581 11.2017 49.1393 11.0231C49.4223 10.8444 49.753 10.7551 50.1315 10.7551C50.3614 10.7551 50.5842 10.7932 50.8 10.8692C51.0158 10.9453 51.2094 11.0646 51.381 11.2273C51.5525 11.39 51.6878 11.6014 51.7868 11.8614C51.8859 12.1196 51.9354 12.4335 51.9354 12.8031V13.0843H48.6963V12.4901H51.1581C51.1581 12.2814 51.1157 12.0966 51.0308 11.9356C50.9459 11.7729 50.8265 11.6447 50.6727 11.551C50.5206 11.4572 50.3419 11.4104 50.1368 11.4104C49.914 11.4104 49.7194 11.4652 49.5532 11.5749C49.3887 11.6827 49.2614 11.8242 49.1712 11.9993C49.0827 12.1726 49.0385 12.361 49.0385 12.5644V13.0286C49.0385 13.301 49.0863 13.5326 49.1818 13.7236C49.279 13.9146 49.4143 14.0605 49.5877 14.1614C49.761 14.2604 49.9635 14.3099 50.1952 14.3099C50.3455 14.3099 50.4825 14.2887 50.6063 14.2462C50.7301 14.202 50.8371 14.1366 50.9273 14.0499C51.0175 13.9633 51.0865 13.8563 51.1342 13.7289L51.885 13.8642C51.8249 14.0853 51.717 14.279 51.5614 14.4452C51.4075 14.6097 51.2138 14.7379 50.9804 14.8299C50.7487 14.9201 50.4843 14.9652 50.1872 14.9652Z" fill="white" fill-opacity="0.4"/>
<path d="M52.9987 14.8829V10.8082H53.7654V11.4555H53.8078C53.8821 11.2362 54.013 11.0637 54.2004 10.9382C54.3897 10.8108 54.6037 10.7472 54.8424 10.7472C54.8919 10.7472 54.9503 10.7489 55.0175 10.7525C55.0865 10.756 55.1404 10.7604 55.1793 10.7657V11.5245C55.1475 11.5156 55.0909 11.5059 55.0095 11.4953C54.9282 11.4829 54.8468 11.4767 54.7655 11.4767C54.578 11.4767 54.4109 11.5165 54.2641 11.5961C54.1191 11.6739 54.0041 11.7827 53.9192 11.9224C53.8343 12.0603 53.7919 12.2177 53.7919 12.3946V14.8829H52.9987Z" fill="white" fill-opacity="0.4"/>
<path d="M57.6592 14.9652C57.2578 14.9652 56.912 14.8794 56.622 14.7078C56.3337 14.5345 56.1109 14.2913 55.9535 13.9783C55.7978 13.6635 55.72 13.2948 55.72 12.8721C55.72 12.4547 55.7978 12.0869 55.9535 11.7685C56.1109 11.4502 56.3302 11.2017 56.6114 11.0231C56.8943 10.8444 57.2251 10.7551 57.6035 10.7551C57.8334 10.7551 58.0563 10.7932 58.272 10.8692C58.4878 10.9453 58.6815 11.0646 58.853 11.2273C59.0246 11.39 59.1598 11.6014 59.2589 11.8614C59.3579 12.1196 59.4074 12.4335 59.4074 12.8031V13.0843H56.1684V12.4901H58.6302C58.6302 12.2814 58.5877 12.0966 58.5028 11.9356C58.4179 11.7729 58.2986 11.6447 58.1447 11.551C57.9926 11.4572 57.814 11.4104 57.6088 11.4104C57.386 11.4104 57.1915 11.4652 57.0252 11.5749C56.8607 11.6827 56.7334 11.8242 56.6432 11.9993C56.5548 12.1726 56.5106 12.361 56.5106 12.5644V13.0286C56.5106 13.301 56.5583 13.5326 56.6538 13.7236C56.7511 13.9146 56.8864 14.0605 57.0597 14.1614C57.233 14.2604 57.4355 14.3099 57.6672 14.3099C57.8175 14.3099 57.9546 14.2887 58.0784 14.2462C58.2022 14.202 58.3092 14.1366 58.3994 14.0499C58.4896 13.9633 58.5585 13.8563 58.6063 13.7289L59.357 13.8642C59.2969 14.0853 59.189 14.279 59.0334 14.4452C58.8795 14.6097 58.6859 14.7379 58.4524 14.8299C58.2208 14.9201 57.9564 14.9652 57.6592 14.9652Z" fill="white" fill-opacity="0.4"/>
<path d="M61.9961 14.9625C61.6672 14.9625 61.3736 14.8785 61.1154 14.7105C60.859 14.5407 60.6573 14.2993 60.5105 13.9863C60.3655 13.6715 60.293 13.2939 60.293 12.8535C60.293 12.4131 60.3664 12.0364 60.5132 11.7234C60.6618 11.4104 60.8651 11.1707 61.1234 11.0045C61.3816 10.8383 61.6743 10.7551 62.0014 10.7551C62.2543 10.7551 62.4577 10.7976 62.6116 10.8825C62.7672 10.9656 62.8875 11.0629 62.9724 11.1743C63.059 11.2857 63.1262 11.3839 63.174 11.4687H63.2217V9.44995H64.0149V14.8829H63.2403V14.2489H63.174C63.1262 14.3356 63.0573 14.4346 62.9671 14.546C62.8786 14.6574 62.7566 14.7547 62.601 14.8378C62.4453 14.9209 62.2437 14.9625 61.9961 14.9625ZM62.1712 14.286C62.3994 14.286 62.5921 14.2259 62.7495 14.1056C62.9087 13.9836 63.029 13.8147 63.1103 13.599C63.1934 13.3832 63.235 13.1321 63.235 12.8456C63.235 12.5626 63.1943 12.315 63.113 12.1028C63.0316 11.8905 62.9122 11.7252 62.7548 11.6067C62.5974 11.4882 62.4029 11.429 62.1712 11.429C61.9325 11.429 61.7335 11.4909 61.5743 11.6146C61.4152 11.7384 61.2949 11.9073 61.2135 12.1213C61.134 12.3353 61.0942 12.5767 61.0942 12.8456C61.0942 13.1179 61.1348 13.3629 61.2162 13.5804C61.2976 13.7979 61.4178 13.9704 61.577 14.0977C61.7379 14.2233 61.936 14.286 62.1712 14.286Z" fill="white" fill-opacity="0.4"/>
<path d="M67.5542 14.8829V9.44995H68.3474V11.4687H68.3951C68.4411 11.3839 68.5074 11.2857 68.5941 11.1743C68.6807 11.0629 68.801 10.9656 68.9549 10.8825C69.1087 10.7976 69.3121 10.7551 69.565 10.7551C69.894 10.7551 70.1875 10.8383 70.4457 11.0045C70.7039 11.1707 70.9064 11.4104 71.0532 11.7234C71.2018 12.0364 71.2761 12.4131 71.2761 12.8535C71.2761 13.2939 71.2027 13.6715 71.0559 13.9863C70.9091 14.2993 70.7075 14.5407 70.451 14.7105C70.1946 14.8785 69.9019 14.9625 69.573 14.9625C69.3254 14.9625 69.1229 14.9209 68.9655 14.8378C68.8098 14.7547 68.6878 14.6574 68.5994 14.546C68.511 14.4346 68.4429 14.3356 68.3951 14.2489H68.3288V14.8829H67.5542ZM68.3314 12.8456C68.3314 13.1321 68.373 13.3832 68.4561 13.599C68.5392 13.8147 68.6595 13.9836 68.8169 14.1056C68.9743 14.2259 69.1671 14.286 69.3952 14.286C69.6322 14.286 69.8303 14.2233 69.9895 14.0977C70.1486 13.9704 70.2689 13.7979 70.3502 13.5804C70.4334 13.3629 70.4749 13.1179 70.4749 12.8456C70.4749 12.5767 70.4342 12.3353 70.3529 12.1213C70.2733 11.9073 70.153 11.7384 69.9921 11.6146C69.8329 11.4909 69.634 11.429 69.3952 11.429C69.1653 11.429 68.9708 11.4882 68.8116 11.6067C68.6542 11.7252 68.5348 11.8905 68.4535 12.1028C68.3721 12.315 68.3314 12.5626 68.3314 12.8456Z" fill="white" fill-opacity="0.4"/>
<path d="M72.7128 16.4109C72.5943 16.4109 72.4864 16.4012 72.3891 16.3818C72.2919 16.3641 72.2193 16.3446 72.1716 16.3234L72.3626 15.6735C72.5076 15.7124 72.6367 15.7292 72.7499 15.7239C72.8631 15.7186 72.963 15.6761 73.0497 15.5965C73.1381 15.5169 73.2159 15.387 73.2831 15.2066L73.3813 14.936L71.8904 10.8082H72.7393L73.7712 13.9704H73.8137L74.8456 10.8082H75.6972L74.018 15.4267C73.9401 15.639 73.8411 15.8185 73.7208 15.9653C73.6006 16.1138 73.4573 16.2252 73.2911 16.2995C73.1248 16.3738 72.9321 16.4109 72.7128 16.4109Z" fill="white" fill-opacity="0.4"/>
<path d="M34.2817 18.9937C34.4264 18.9937 34.4638 19.031 34.5058 19.087L36.3877 21.5968H36.453L38.2695 19.101C38.3209 19.0356 38.4003 18.9983 38.503 18.9983H39.6424C39.7591 18.9983 39.8011 19.101 39.7451 19.1663L37.1955 22.3666L40.0346 25.9308C40.1 26.0241 40.0626 26.1127 39.9412 26.1127H38.7925C38.6898 26.1127 38.5964 26.0754 38.531 25.9821L36.411 23.1363H36.3456L34.3237 25.9727C34.2443 26.066 34.1556 26.1174 34.0482 26.1174H32.9088C32.8154 26.1174 32.764 26.0381 32.8294 25.9494L35.6265 22.3946L33.1049 19.1943C33.0536 19.101 33.0769 18.9983 33.1983 18.9983H34.2817V18.9937Z" fill="white" fill-opacity="0.4"/>
<path d="M45.5539 18.9937C47.1088 18.9937 48.2342 20.118 48.2342 21.5408C48.2342 23.0057 47.1088 24.102 45.5539 24.102H43.2938V25.9308C43.2938 26.0474 43.2424 26.1127 43.135 26.1127H42.2851C42.1684 26.1127 42.103 26.0474 42.103 25.9308V19.1803C42.103 19.0636 42.1684 18.9983 42.2851 18.9983H45.5539V18.9937ZM45.5539 22.9917C46.5065 22.9917 47.0435 22.3759 47.0435 21.5408C47.0435 20.7198 46.5065 20.104 45.5539 20.104H43.2938V22.9917H45.5539Z" fill="white" fill-opacity="0.4"/>
<path d="M50.7328 24.4797C51.2044 24.4797 51.6107 24.8716 51.6107 25.3428C51.6107 25.814 51.2044 26.2198 50.7328 26.2198C50.2611 26.2198 49.8689 25.814 49.8689 25.3428C49.8689 24.8716 50.2611 24.4797 50.7328 24.4797Z" fill="white" fill-opacity="0.4"/>
<path d="M59.4932 26.1127C59.3998 26.1127 59.3251 26.0754 59.2691 25.996L56.9296 23.043L55.1925 20.6544L55.1271 20.6684L55.2065 22.7864V25.9354C55.2065 26.052 55.1412 26.1173 55.0104 26.1173H54.1886C54.0858 26.1173 54.0298 26.052 54.0298 25.9354V19.1802C54.0298 19.0636 54.0812 18.9983 54.1979 18.9983H54.9684C55.0991 18.9983 55.2019 19.0356 55.2672 19.1289L57.7795 22.2639L59.3485 24.4332L59.4138 24.4192L59.3205 22.3152V19.1802C59.3205 19.0636 59.3858 18.9983 59.5026 18.9983H60.3244C60.4412 18.9983 60.4925 19.0636 60.4925 19.1802V25.9354C60.4925 26.052 60.4412 26.1173 60.3244 26.1173H59.4932V26.1127Z" fill="white" fill-opacity="0.4"/>
<path d="M68.4351 18.9937C68.5285 18.9937 68.6173 19.073 68.6173 19.1756V19.922C68.6173 20.0153 68.5239 20.09 68.4351 20.09H64.3025V21.8534H68.0662C68.183 21.8534 68.2484 21.9187 68.2484 22.0353V22.7818C68.2484 22.8984 68.183 22.9497 68.0662 22.9497H64.3025V25.0024H68.5659C68.6826 25.0024 68.734 25.0537 68.734 25.161V25.9308C68.734 26.0474 68.6826 26.1127 68.5659 26.1127H63.2846C63.1678 26.1127 63.1165 26.0474 63.1165 25.9308V19.1803C63.1165 19.0636 63.1678 18.9983 63.2846 18.9983H68.4351V18.9937Z" fill="white" fill-opacity="0.4"/>
<path d="M76.9059 18.9937C77.0226 18.9937 77.088 19.059 77.088 19.1756V19.922C77.088 20.0387 77.0226 20.104 76.9059 20.104H74.487V25.9308C74.487 26.0241 74.4216 26.1127 74.3049 26.1127H73.483C73.3663 26.1127 73.3009 26.0474 73.3009 25.9308V20.104H70.8821C70.7653 20.104 70.7 20.0387 70.7 19.922V19.1756C70.7 19.059 70.7653 18.9937 70.8821 18.9937H76.9059Z" fill="white" fill-opacity="0.4"/>
<path d="M79.955 18.9937C80.0717 18.9937 80.1371 19.031 80.1651 19.1243L81.8135 24.7271H81.8788L83.4618 19.1243C83.4899 19.031 83.5552 18.9937 83.644 18.9937H84.5218C84.6152 18.9937 84.6806 19.031 84.704 19.1243L86.3243 24.7271H86.3897L88.0241 19.1383C88.0521 19.045 88.1174 18.9937 88.2062 18.9937H89.1728C89.2895 18.9937 89.3315 19.045 89.2895 19.1616L87.0668 25.9541C87.0294 26.0567 86.95 26.1127 86.8426 26.1127H85.7593C85.6566 26.1127 85.5912 26.0614 85.5492 25.9448L84.1109 20.9437H84.0455L82.6213 25.9588C82.5933 26.0614 82.5279 26.1174 82.4392 26.1174H81.3418C81.2251 26.1174 81.1457 26.066 81.1084 25.9588L78.8716 19.1383C78.8342 19.045 78.8716 18.9937 78.9883 18.9937H79.955Z" fill="white" fill-opacity="0.4"/>
<path d="M94.7438 18.8909C96.8078 18.8909 98.4188 20.4304 98.4188 22.5624C98.4188 24.6803 96.8125 26.2199 94.7438 26.2199C92.6799 26.2199 91.0688 24.6803 91.0688 22.5624C91.0688 20.4304 92.6752 18.8909 94.7438 18.8909ZM92.2689 22.5624C92.2689 24.0272 93.2776 25.1095 94.7392 25.1095C96.2054 25.1095 97.2094 24.0272 97.2094 22.5624C97.2094 21.0882 96.2008 20.0012 94.7392 20.0012C93.2776 20.0012 92.2689 21.0835 92.2689 22.5624Z" fill="white" fill-opacity="0.4"/>
<path d="M104.223 18.9937C105.778 18.9937 106.917 20.118 106.917 21.5408C106.917 22.5345 106.38 23.3696 105.558 23.7894L106.749 25.9074C106.814 26.0241 106.749 26.1174 106.604 26.1174H105.652C105.535 26.1174 105.442 26.0241 105.39 25.9354L104.438 24.0927C104.4 24.1067 104.335 24.1067 104.255 24.1067H101.967V25.9354C101.967 26.0521 101.916 26.1174 101.799 26.1174H100.977C100.833 26.1174 100.781 26.0241 100.781 25.9354V19.1803C100.781 19.0636 100.847 18.9983 100.963 18.9983H104.223V18.9937ZM104.223 22.9917C105.175 22.9917 105.726 22.3759 105.726 21.5408C105.726 20.7198 105.175 20.104 104.223 20.104H101.963V22.9917H104.223Z" fill="white" fill-opacity="0.4"/>
<path d="M110.406 18.9937C110.522 18.9937 110.588 19.059 110.588 19.1756V22.3106L113.959 19.1383C114.053 19.045 114.183 18.9937 114.337 18.9937H115.514C115.631 18.9937 115.682 19.1103 115.594 19.2036L112.456 22.0633L115.762 25.8888C115.855 25.9821 115.799 26.1127 115.659 26.1127H114.613C114.454 26.1127 114.323 26.0614 114.221 25.9448L111.592 22.8378L110.583 23.6495V25.9354C110.583 26.0521 110.518 26.1174 110.401 26.1174H109.579C109.462 26.1174 109.397 26.0521 109.397 25.9354V19.1803C109.397 19.0636 109.462 18.9983 109.579 18.9983H110.406V18.9937Z" fill="white" fill-opacity="0.4"/>
</svg>
