<svg width="277" height="60" viewBox="0 0 277 60" fill="none" xmlns="http://www.w3.org/2000/svg">
<path d="M62.3093 34.1006C62.5498 34.1006 62.6119 34.1632 62.6817 34.2571L65.8084 38.4668H65.917L68.935 34.2806C69.0203 34.171 69.1522 34.1084 69.3229 34.1084H71.216C71.4099 34.1084 71.4798 34.2806 71.3867 34.3901L67.1506 39.7579L71.8677 45.7359C71.9763 45.8924 71.9142 46.0411 71.7125 46.0411H69.8039C69.6333 46.0411 69.4781 45.9785 69.3695 45.822L65.8472 41.0489H65.7385L62.3791 45.8064C62.2473 45.9628 62.0998 46.0489 61.9214 46.0489H60.0283C59.8732 46.0489 59.7878 45.9159 59.8965 45.7672L64.5437 39.8048L60.3542 34.437C60.2689 34.2806 60.3076 34.1084 60.5094 34.1084H62.3093V34.1006Z" fill="white"/>
<path d="M81.0382 34.1006C83.6217 34.1006 85.4915 35.9863 85.4915 38.3729C85.4915 40.8298 83.6217 42.6686 81.0382 42.6686H77.2831V45.7359C77.2831 45.9315 77.1977 46.0411 77.0193 46.0411H75.6073C75.4133 46.0411 75.3047 45.9315 75.3047 45.7359V34.4136C75.3047 34.218 75.4133 34.1084 75.6073 34.1084H81.0382V34.1006ZM81.0382 40.8064C82.6209 40.8064 83.5131 39.7735 83.5131 38.3729C83.5131 36.9957 82.6209 35.9629 81.0382 35.9629H77.2831V40.8064H81.0382Z" fill="white"/>
<path d="M89.6423 43.3027C90.4259 43.3027 91.1009 43.96 91.1009 44.7503C91.1009 45.5406 90.4259 46.2214 89.6423 46.2214C88.8587 46.2214 88.207 45.5406 88.207 44.7503C88.207 43.96 88.8587 43.3027 89.6423 43.3027Z" fill="white"/>
<path d="M104.198 46.0411C104.043 46.0411 103.919 45.9785 103.826 45.8455L99.9391 40.8924L97.0529 36.8862L96.9443 36.9096L97.0762 40.4621V45.7437C97.0762 45.9394 96.9676 46.0489 96.7504 46.0489H95.3849C95.2142 46.0489 95.1211 45.9394 95.1211 45.7437V34.4136C95.1211 34.2179 95.2064 34.1084 95.4004 34.1084H96.6805C96.8978 34.1084 97.0685 34.171 97.1771 34.3275L101.351 39.5857L103.958 43.2242L104.067 43.2007L103.911 39.6718V34.4136C103.911 34.2179 104.02 34.1084 104.214 34.1084H105.579C105.773 34.1084 105.859 34.2179 105.859 34.4136V45.7437C105.859 45.9394 105.773 46.0489 105.579 46.0489H104.198V46.0411Z" fill="white"/>
<path d="M119.056 34.1006C119.211 34.1006 119.358 34.2336 119.358 34.4057V35.6577C119.358 35.8142 119.203 35.9394 119.056 35.9394H112.189V38.8971H118.443C118.637 38.8971 118.745 39.0067 118.745 39.2023V40.4542C118.745 40.6499 118.637 40.7359 118.443 40.7359H112.189V44.1788H119.273C119.467 44.1788 119.552 44.2649 119.552 44.4449V45.7359C119.552 45.9315 119.467 46.0411 119.273 46.0411H110.498C110.304 46.0411 110.219 45.9315 110.219 45.7359V34.4136C110.219 34.218 110.304 34.1084 110.498 34.1084H119.056V34.1006Z" fill="white"/>
<path d="M133.127 34.1006C133.321 34.1006 133.43 34.2101 133.43 34.4057V35.6577C133.43 35.8533 133.321 35.9629 133.127 35.9629H129.108V45.7359C129.108 45.8924 129 46.0411 128.806 46.0411H127.44C127.246 46.0411 127.138 45.9315 127.138 45.7359V35.9629H123.119C122.925 35.9629 122.816 35.8533 122.816 35.6577V34.4057C122.816 34.2101 122.925 34.1006 123.119 34.1006H133.127Z" fill="white"/>
<path d="M138.194 34.1006C138.388 34.1006 138.497 34.1632 138.543 34.3197L141.282 43.7172H141.391L144.021 34.3197C144.067 34.1632 144.176 34.1006 144.323 34.1006H145.782C145.937 34.1006 146.046 34.1632 146.085 34.3197L148.777 43.7172H148.885L151.601 34.3432C151.647 34.1867 151.756 34.1006 151.903 34.1006H153.509C153.703 34.1006 153.773 34.1867 153.703 34.3823L150.01 45.7751C149.948 45.9472 149.816 46.0411 149.638 46.0411H147.838C147.667 46.0411 147.559 45.955 147.489 45.7594L145.099 37.3713H144.991L142.624 45.7829C142.578 45.955 142.469 46.0489 142.322 46.0489H140.498C140.305 46.0489 140.173 45.9628 140.111 45.7829L136.394 34.3432C136.332 34.1867 136.394 34.1006 136.588 34.1006H138.194Z" fill="white"/>
<path d="M162.766 33.9287C166.195 33.9287 168.872 36.5109 168.872 40.0868C168.872 43.6392 166.203 46.2213 162.766 46.2213C159.337 46.2213 156.66 43.6392 156.66 40.0868C156.66 36.5109 159.329 33.9287 162.766 33.9287ZM158.654 40.0868C158.654 42.5437 160.33 44.359 162.758 44.359C165.194 44.359 166.862 42.5437 166.862 40.0868C166.862 37.6142 165.187 35.791 162.758 35.791C160.33 35.791 158.654 37.6063 158.654 40.0868Z" fill="white"/>
<path d="M178.515 34.1006C181.098 34.1006 182.991 35.9863 182.991 38.3729C182.991 40.0395 182.099 41.4402 180.734 42.1444L182.712 45.6968C182.821 45.8924 182.712 46.0489 182.472 46.0489H180.889C180.695 46.0489 180.54 45.8924 180.454 45.7438L178.872 42.653C178.81 42.6765 178.701 42.6765 178.569 42.6765H174.768V45.7438C174.768 45.9394 174.682 46.0489 174.488 46.0489H173.123C172.882 46.0489 172.797 45.8924 172.797 45.7438V34.4136C172.797 34.218 172.905 34.1084 173.099 34.1084H178.515V34.1006ZM178.515 40.8064C180.098 40.8064 181.013 39.7735 181.013 38.3729C181.013 36.9957 180.098 35.9629 178.515 35.9629H174.76V40.8064H178.515Z" fill="white"/>
<path d="M188.785 34.1006C188.979 34.1006 189.088 34.2101 189.088 34.4057V39.664L194.689 34.3432C194.845 34.1867 195.062 34.1006 195.318 34.1006H197.273C197.467 34.1006 197.552 34.2962 197.405 34.4527L192.191 39.2492L197.684 45.6655C197.839 45.822 197.746 46.0411 197.513 46.0411H195.776C195.512 46.0411 195.294 45.955 195.124 45.7594L190.756 40.5481L189.08 41.9096V45.7438C189.08 45.9394 188.971 46.0489 188.777 46.0489H187.412C187.218 46.0489 187.109 45.9394 187.109 45.7438V34.4136C187.109 34.218 187.218 34.1084 187.412 34.1084H188.785V34.1006Z" fill="white"/>
<rect x="207" y="33" width="1" height="13" fill="white" fill-opacity="0.3"/>
<g opacity="0.9">
<path d="M221.568 45.6022C224.721 45.6022 226.187 44.034 226.187 42.2102C226.187 37.8296 218.96 39.6535 218.96 36.7388C218.96 35.699 219.829 34.8468 221.858 34.8468C222.915 34.8468 224.091 35.1536 225.13 35.8183L225.693 34.4547C224.704 33.7729 223.256 33.3979 221.858 33.3979C218.722 33.3979 217.29 34.9661 217.29 36.8069C217.29 41.2386 224.517 39.3978 224.517 42.3125C224.517 43.3522 223.63 44.1533 221.568 44.1533C220.034 44.1533 218.517 43.5738 217.631 42.7727L217 44.1022C217.955 44.9885 219.744 45.6022 221.568 45.6022Z" fill="white"/>
<path d="M232.244 45.4658H233.931V35.0172H238.022V33.5343H228.153V35.0172H232.244V45.4658Z" fill="white"/>
<path d="M249.557 45.4658H251.347L245.927 33.5343H244.239L238.836 45.4658H240.592L241.904 42.4829H248.245L249.557 45.4658ZM242.501 41.1193L245.075 35.2729L247.648 41.1193H242.501Z" fill="white"/>
<path d="M262.945 45.4658H264.939L259.519 38.9035L264.615 33.5343H262.672L256.195 40.1989V33.5343H254.491V45.4658H256.195V42.3807L258.377 40.1648L262.945 45.4658Z" fill="white"/>
<path d="M269.81 43.9829V40.1307H275.793V38.6819H269.81V35.0172H276.525V33.5343H268.105V45.4658H276.764V43.9829H269.81Z" fill="white"/>
</g>
<path d="M0 0H42V56C42 58.2091 40.2091 60 38 60H4C1.79086 60 0 58.2091 0 56V0Z" fill="#E22440"/>
<path d="M0.5 0.5H41.5V56C41.5 57.933 39.933 59.5 38 59.5H4C2.067 59.5 0.5 57.933 0.5 56V0.5Z" stroke="url(#paint0_linear_187_105)" stroke-opacity="0.3"/>
<path d="M24.7463 50.4013L22.1783 47.8113C21.449 47.0758 20.2697 47.0758 19.5482 47.8113L16.9801 50.4013C16.2276 51.1603 15.0017 51.1603 14.2492 50.4013L13.0078 49.1494L16.9413 45.1822C19.1059 42.9991 22.6127 42.9991 24.7773 45.1822L28.7108 49.1494L27.4695 50.4013C26.7247 51.1603 25.5066 51.1603 24.7463 50.4013Z" fill="white"/>
<path d="M10.8058 46.9202L9.56442 45.6683C8.81186 44.9093 8.81186 43.673 9.56442 42.914L12.1325 40.324C12.8618 39.5885 12.8618 38.3991 12.1325 37.6714L9.56442 35.0814C8.81186 34.3225 8.81186 33.0861 9.56442 32.3271L10.8058 31.0752L14.7393 35.0423C16.9039 37.2254 16.9039 40.7622 14.7393 42.9453L10.8058 46.9202Z" fill="white"/>
<path d="M20.8984 34.4237C19.4786 34.4237 18.0588 33.8838 16.9804 32.7883L13.0469 28.8212L14.2882 27.5692C15.0408 26.8103 16.2666 26.8103 17.0192 27.5692L19.5872 30.1592C20.3088 30.8869 21.4958 30.8869 22.2173 30.1592L24.7854 27.5692C25.5379 26.8103 26.7638 26.8103 27.5163 27.5692L28.7577 28.8212L24.8242 32.7883C23.738 33.8681 22.3182 34.4237 20.8984 34.4237Z" fill="white"/>
<path d="M30.9632 46.888L27.0297 42.9209C24.8651 40.7378 24.8651 37.201 27.0297 35.0179L30.9632 31.0508L32.2046 32.3027C32.9571 33.0617 32.9571 34.298 32.2046 35.057L29.6365 37.647C28.9072 38.3825 28.9072 39.5719 29.6365 40.2996L32.2046 42.8896C32.9571 43.6486 32.9571 44.8849 32.2046 45.6439L30.9632 46.888Z" fill="white"/>
<defs>
<linearGradient id="paint0_linear_187_105" x1="19.5" y1="71.5" x2="18" y2="53" gradientUnits="userSpaceOnUse">
<stop/>
<stop offset="1" stop-opacity="0"/>
</linearGradient>
</defs>
</svg>
