<svg width="12" height="7" viewBox="0 0 12 7" fill="none" xmlns="http://www.w3.org/2000/svg">
<path opacity="0.4" d="M6 6.91455C6.08887 6.91455 6.1735 6.89762 6.25391 6.86377C6.33431 6.82568 6.40625 6.77067 6.46973 6.69873L11.0845 1.98877C11.2072 1.86182 11.2686 1.7137 11.2686 1.54443C11.2686 1.42594 11.241 1.32015 11.186 1.22705C11.131 1.12972 11.0549 1.05355 10.9575 0.998535C10.8644 0.943522 10.7586 0.916016 10.6401 0.916016C10.4709 0.916016 10.3185 0.977376 10.1831 1.1001L5.68896 5.7085H6.30469L1.8042 1.1001C1.67725 0.977376 1.52702 0.916016 1.35352 0.916016C1.23503 0.916016 1.12712 0.943522 1.02979 0.998535C0.936686 1.05355 0.86263 1.12972 0.807617 1.22705C0.752604 1.32015 0.725098 1.42594 0.725098 1.54443C0.725098 1.6333 0.742025 1.71582 0.775879 1.79199C0.809733 1.86393 0.854167 1.92952 0.90918 1.98877L5.51758 6.70508C5.66146 6.84473 5.82227 6.91455 6 6.91455Z" fill="white"/>
</svg>
