<svg width="101" height="101" viewBox="0 0 101 101" fill="none" xmlns="http://www.w3.org/2000/svg">
<g clip-path="url(#clip0_138_2978)">
<rect x="10" y="10" width="81" height="81" rx="20" fill="#F3BA2F"/>
<circle cx="49.9998" cy="50.5001" r="36.8182" fill="#F3BA2F"/>
<path d="M55.3652 67.5242V73.5522L50.2339 76.641L45.2486 73.5522V67.5242L50.2339 70.6129L55.3652 67.5242ZM27.9092 46.675L32.8946 49.7637V60.1012L41.4791 65.357V71.3851L27.9092 63.1899V46.675ZM72.5587 46.675V63.2148L58.8428 71.41V65.382L67.4274 60.1261V49.7887L72.5587 46.675ZM58.8185 38.4798L63.9498 41.5685V47.5966L55.3652 52.8525V63.3394L50.3799 66.4281L45.4188 63.3394V52.8276L36.5181 47.5717V41.5436L41.6494 38.4549L50.2339 43.7108L58.8185 38.4798ZM36.5181 51.906L41.5035 54.9947V61.0228L36.5181 57.934V51.906ZM63.9498 51.906V57.934L58.9644 61.0228V54.9947L63.9498 51.906ZM32.8946 33.2239L38.0259 36.3127L32.8946 39.4014V45.4295L27.9092 42.3407V36.3127L32.8946 33.2239ZM67.5733 33.2239L72.7046 36.3127V42.3407L67.5733 45.4295V39.4014L62.588 36.3127L67.5733 33.2239ZM50.2339 33.2239L55.3652 36.3127L50.2339 39.4014L45.2486 36.3127L50.2339 33.2239ZM50.2339 22.8865L63.9498 31.0817L58.9644 34.1704L50.3799 28.9146L41.6251 34.1704L36.6397 31.0817L50.2339 22.8865Z" fill="white"/>
</g>
<rect x="5" y="5" width="91" height="91" rx="25" stroke="#F3BA2F" stroke-opacity="0.08" stroke-width="10"/>
<defs>
<clipPath id="clip0_138_2978">
<rect x="10" y="10" width="81" height="81" rx="20" fill="white"/>
</clipPath>
</defs>
</svg>
