<svg width="25" height="26" viewBox="0 0 25 26" fill="none" xmlns="http://www.w3.org/2000/svg">
<path d="M12.214 20.1306C16.1315 20.1306 19.3073 16.9448 19.3073 13.0148C19.3073 9.0848 16.1315 5.89893 12.214 5.89893C8.29641 5.89893 5.12061 9.0848 5.12061 13.0148C5.12061 16.9448 8.29641 20.1306 12.214 20.1306Z" fill="#FDCA47"/>
<path d="M6.2627 10.6191C6.32011 10.0942 6.51234 9.59178 6.77346 9.13148C7.31397 8.20232 8.14418 7.47736 9.13607 7.0684C9.62737 6.87105 10.1501 6.75135 10.6764 6.76787C10.2205 7.02883 9.79013 7.26875 9.38372 7.54323C8.57701 8.07527 7.84518 8.71357 7.20783 9.44102C6.88179 9.80816 6.58224 10.2023 6.2627 10.6191Z" fill="#FFE8BB"/>
<path d="M19.3072 13.0153C19.307 14.466 18.8648 15.8819 18.0399 17.0734C17.215 18.2648 16.0468 19.1749 14.6918 19.6817C13.3368 20.1884 11.8599 20.2677 10.4588 19.9087C9.05766 19.5498 7.79938 18.7698 6.85254 17.6734C8.20759 18.8487 9.95572 19.4663 11.7459 19.402C13.5361 19.3378 15.2357 18.5965 16.5036 17.327C17.7715 16.0575 18.5136 14.3539 18.5811 12.5582C18.6485 10.7624 18.0362 9.00758 16.8672 7.646C17.6341 8.31298 18.2489 9.1377 18.6699 10.0642C19.0909 10.9906 19.3083 11.9971 19.3072 13.0153Z" fill="#F9B700"/>
<path d="M12.2015 6.67968C10.9298 8.16527 9.6302 9.5106 8.22221 10.6491C7.64083 11.1217 7.03232 11.5597 6.39982 11.9609C6.18546 12.0964 5.96795 12.2273 5.74726 12.3535C5.71553 12.3715 5.6797 12.3811 5.64324 12.3811C5.60678 12.3812 5.57093 12.3719 5.53911 12.354C5.5073 12.3361 5.48062 12.3103 5.46164 12.2791C5.44265 12.2479 5.432 12.2123 5.43072 12.1757L5.18857 5.37593C5.18779 5.34916 5.19203 5.32249 5.20105 5.29729C5.21315 5.26269 5.23401 5.23185 5.26158 5.20779C5.28916 5.18373 5.32249 5.16728 5.35832 5.16005C5.38306 5.15531 5.40847 5.15531 5.43321 5.16005L12.0238 6.19334C12.0751 6.20274 12.1231 6.22541 12.163 6.25912C12.2029 6.29283 12.2333 6.3364 12.2513 6.38553C12.2692 6.43466 12.2741 6.48765 12.2653 6.53924C12.2566 6.59084 12.2346 6.63924 12.2015 6.67968Z" fill="#DF2540"/>
<path d="M8.22234 10.6491C7.64095 11.1218 7.03244 11.5598 6.39994 11.9609C5.89167 9.94341 5.50872 7.6905 5.20166 5.29935C5.21376 5.26475 5.23462 5.23391 5.26219 5.20985C5.28977 5.18579 5.3231 5.16934 5.35893 5.16211C6.4414 6.92097 7.39827 8.75457 8.22234 10.6491Z" fill="#EC576E"/>
<path d="M18.1825 5.30512C18.6311 5.30512 18.9948 4.94027 18.9948 4.49021C18.9948 4.04014 18.6311 3.67529 18.1825 3.67529C17.7338 3.67529 17.3701 4.04014 17.3701 4.49021C17.3701 4.94027 17.7338 5.30512 18.1825 5.30512Z" fill="#3D63F3"/>
<path d="M14.736 6L14.3062 7.58075L15.8859 7.16352L14.736 6Z" fill="#EC576E"/>
<path d="M4.01556 2.99361L2.37741 2.9875L3.18929 4.40542L4.01556 2.99361Z" fill="#3D63F3"/>
<path d="M21.0571 6.96655L20.6616 9.8701L22.2853 7.79149L21.0571 6.96655Z" fill="#79B453"/>
<path d="M17.7656 20.1306L17.3701 23.0342L18.9938 20.9555L17.7656 20.1306Z" fill="#79B453"/>
<path d="M1.0209 13.1829L0.183594 15.6166L1.98851 15.5004L1.0209 13.1829Z" fill="#EC576E"/>
<path d="M4.08973 22.0962C4.42945 22.0962 4.70485 21.8199 4.70485 21.4791C4.70485 21.1383 4.42945 20.8621 4.08973 20.8621C3.75001 20.8621 3.47461 21.1383 3.47461 21.4791C3.47461 21.8199 3.75001 22.0962 4.08973 22.0962Z" fill="#3D63F3"/>
<path d="M13.5377 12.3967C13.459 12.3968 13.3821 12.3725 13.3177 12.327C13.2533 12.2815 13.2044 12.2171 13.178 12.1427C13.1515 12.0683 13.1486 11.9874 13.1698 11.9113C13.1909 11.8352 13.2351 11.7675 13.2961 11.7175C14.1743 10.9983 15.2837 10.9046 16.5939 11.4395C16.6403 11.4585 16.6826 11.4864 16.7182 11.5216C16.7539 11.5569 16.7823 11.5989 16.8018 11.6452C16.8213 11.6915 16.8315 11.7412 16.8319 11.7915C16.8322 11.8418 16.8227 11.8916 16.8038 11.9382C16.785 11.9847 16.7572 12.0271 16.722 12.0629C16.6868 12.0987 16.645 12.1272 16.5988 12.1467C16.5526 12.1663 16.5031 12.1765 16.453 12.1769C16.4029 12.1772 16.3532 12.1677 16.3068 12.1488C15.2583 11.7215 14.433 11.7746 13.7789 12.3106C13.7108 12.3662 13.6256 12.3966 13.5377 12.3967Z" fill="#664100"/>
<path d="M8.53663 14.0129C8.46794 14.0129 8.40054 13.9943 8.34152 13.959C8.28251 13.9238 8.23407 13.8732 8.20134 13.8126C8.16862 13.752 8.15281 13.6837 8.15558 13.6148C8.15836 13.546 8.1796 13.4792 8.21709 13.4214C8.83671 12.4698 9.86472 12.0425 11.2757 12.1537C11.3749 12.1637 11.4664 12.2122 11.5304 12.289C11.5944 12.3657 11.6258 12.4645 11.6181 12.5643C11.6103 12.664 11.5639 12.7568 11.4888 12.8226C11.4137 12.8885 11.3159 12.9222 11.2163 12.9165C10.0899 12.8279 9.31901 13.1299 8.85617 13.8396C8.8215 13.8929 8.77413 13.9367 8.71833 13.967C8.66253 13.9972 8.60006 14.013 8.53663 14.0129Z" fill="#664100"/>
<path d="M10.6906 18.1402C10.6638 18.1402 10.6371 18.1367 10.6113 18.1297C10.5358 18.108 10.4718 18.0574 10.4332 17.9888C10.3945 17.9202 10.3842 17.8392 10.4045 17.7631C10.7116 16.6502 10.3756 15.96 9.34656 15.5853C9.27489 15.557 9.21702 15.5018 9.18519 15.4314C9.15337 15.3611 9.15008 15.281 9.17603 15.2083C9.20197 15.1355 9.25513 15.0757 9.32423 15.0416C9.39333 15.0075 9.47296 15.0016 9.54627 15.0253C10.8714 15.5052 11.3652 16.5069 10.9742 17.9224C10.9571 17.9847 10.9201 18.0397 10.8689 18.079C10.8177 18.1184 10.7551 18.1399 10.6906 18.1402Z" fill="#664100"/>
<path d="M15.1767 17.1043C15.1308 17.1044 15.0854 17.0938 15.0443 17.0733C15.0031 17.0528 14.9672 17.0229 14.9396 16.9861C14.0553 15.816 14.1457 14.7021 15.2002 13.765C15.2294 13.7391 15.2634 13.7192 15.3002 13.7064C15.3371 13.6937 15.376 13.6884 15.4149 13.6907C15.4538 13.6931 15.4919 13.7031 15.5269 13.7203C15.5619 13.7374 15.5933 13.7613 15.6191 13.7905C15.6449 13.8198 15.6648 13.8539 15.6775 13.8909C15.6902 13.9278 15.6955 13.9669 15.6931 14.0059C15.6908 14.045 15.6808 14.0831 15.6637 14.1183C15.6466 14.1534 15.6228 14.1849 15.5936 14.2108C14.7748 14.9385 14.7174 15.7059 15.4129 16.6265C15.4453 16.6709 15.4649 16.7234 15.4696 16.7782C15.4742 16.833 15.4638 16.888 15.4395 16.9373C15.4151 16.9866 15.3777 17.0282 15.3314 17.0577C15.2851 17.0871 15.2316 17.1033 15.1767 17.1043Z" fill="#664100"/>
<path d="M12.6314 17.0081C13.0734 17.0081 13.4318 16.5529 13.4318 15.9914C13.4318 15.4298 13.0734 14.9746 12.6314 14.9746C12.1894 14.9746 11.8311 15.4298 11.8311 15.9914C11.8311 16.5529 12.1894 17.0081 12.6314 17.0081Z" fill="#664100"/>
<path d="M15.8753 17.1214C14.4034 16.9261 13.1292 16.8124 12.4058 16.6446C12.1486 16.6446 11.9399 16.3912 11.9399 16.0781C11.9399 15.7651 12.1486 15.5111 12.4058 15.5111C12.9899 15.3854 14.4484 15.6989 16.0106 15.9439C15.894 16.0037 15.796 16.0946 15.7274 16.2065C15.6587 16.3184 15.622 16.4471 15.6212 16.5785C15.6215 16.6821 15.6444 16.7844 15.6883 16.8782C15.7322 16.972 15.796 17.055 15.8753 17.1214Z" fill="#3D63F3"/>
<path d="M18.4845 15.3086C18.1699 14.9455 17.7395 14.7286 17.3361 14.7286C17.0879 14.7249 16.8469 14.8124 16.6586 14.9746C16.3929 15.206 16.2701 15.5636 16.3215 15.9553V15.9908L16.0125 15.9437C15.8959 16.0036 15.7979 16.0945 15.7292 16.2064C15.6606 16.3183 15.6238 16.4469 15.623 16.5784C15.6233 16.682 15.6462 16.7843 15.6901 16.8781C15.734 16.9719 15.7979 17.0549 15.8772 17.1213C16.027 17.1408 16.1738 17.1614 16.3265 17.1824L17.5308 17.3632L17.8848 17.4163C18.1329 17.4201 18.3737 17.3326 18.5618 17.1704L18.6282 17.1068C19.0471 16.6645 18.9927 15.8947 18.4845 15.3086ZM18.1709 16.7211C17.9342 16.9274 17.4909 16.8037 17.1808 16.4456C16.8707 16.0875 16.8098 15.6302 17.0465 15.4238C17.2832 15.2175 17.726 15.3412 18.0366 15.6988C18.3471 16.0564 18.4071 16.5147 18.1709 16.7211Z" fill="#8ACBF9"/>
<path d="M19.6694 16.1017L18.6259 17.1069C19.0468 16.6646 18.9924 15.8948 18.4841 15.3088C18.1696 14.9456 17.7392 14.7288 17.3357 14.7288C17.0876 14.725 16.8466 14.8125 16.6582 14.9747L17.7821 14.011C18.0605 13.7734 18.4202 13.6538 18.7849 13.6775C19.1497 13.7012 19.4909 13.8664 19.7364 14.1381C19.9819 14.4098 20.1123 14.7667 20.1001 15.1332C20.0878 15.4997 19.9339 15.847 19.6709 16.1017H19.6694Z" fill="#3D63F3"/>
<path d="M18.1706 16.7211C17.934 16.9275 17.4906 16.8038 17.1805 16.4457C16.8705 16.0875 16.8096 15.6303 17.0462 15.4239C17.2829 15.2175 17.7258 15.3412 18.0363 15.6989C18.3469 16.0565 18.4068 16.5148 18.1706 16.7211Z" fill="#3D63F3"/>
</svg>
