<svg width="16" height="16" viewBox="0 0 16 16" fill="none" xmlns="http://www.w3.org/2000/svg">
<path d="M4.8252 3.56738C4.52083 3.56738 4.26351 3.67806 4.05322 3.89941C3.84847 4.11523 3.74609 4.39193 3.74609 4.72949C3.74609 4.98958 3.80697 5.23861 3.92871 5.47656C4.05599 5.71452 4.2137 5.93587 4.40186 6.14062C4.59554 6.33984 4.79199 6.51969 4.99121 6.68018C5.19596 6.83512 5.37581 6.96517 5.53076 7.07031C5.5695 7.09798 5.60824 7.12012 5.64697 7.13672C5.68571 7.15332 5.71615 7.16162 5.73828 7.16162C5.77148 7.16162 5.80469 7.15332 5.83789 7.13672C5.87663 7.11458 5.9126 7.09245 5.9458 7.07031C6.10075 6.97624 6.2806 6.85173 6.48535 6.69678C6.6901 6.5363 6.88656 6.35368 7.07471 6.14893C7.26286 5.94417 7.41781 5.72282 7.53955 5.48486C7.6613 5.24137 7.72217 4.98958 7.72217 4.72949C7.72217 4.39193 7.61979 4.11523 7.41504 3.89941C7.21029 3.67806 6.9502 3.56738 6.63477 3.56738C6.43555 3.56738 6.2557 3.62272 6.09521 3.7334C5.94027 3.83854 5.82129 3.97412 5.73828 4.14014C5.64974 3.97412 5.52799 3.83854 5.37305 3.7334C5.2181 3.62272 5.03548 3.56738 4.8252 3.56738ZM4.26074 9.54395H11.6816C11.8255 9.54395 11.9445 9.49414 12.0386 9.39453C12.1382 9.29492 12.188 9.17318 12.188 9.0293C12.188 8.89095 12.1382 8.77474 12.0386 8.68066C11.9445 8.58105 11.8255 8.53125 11.6816 8.53125H4.26074C4.11686 8.53125 3.99512 8.58105 3.89551 8.68066C3.7959 8.77474 3.74609 8.89095 3.74609 9.0293C3.74609 9.17318 3.7959 9.29492 3.89551 9.39453C3.99512 9.49414 4.11686 9.54395 4.26074 9.54395ZM4.26074 12.084H9.76416C9.90804 12.084 10.0298 12.0369 10.1294 11.9429C10.229 11.8433 10.2788 11.7243 10.2788 11.5859C10.2788 11.4421 10.229 11.3231 10.1294 11.229C10.0298 11.1294 9.90804 11.0796 9.76416 11.0796H4.26074C4.11686 11.0796 3.99512 11.1294 3.89551 11.229C3.7959 11.3231 3.74609 11.4421 3.74609 11.5859C3.74609 11.7243 3.7959 11.8433 3.89551 11.9429C3.99512 12.0369 4.11686 12.084 4.26074 12.084ZM3.24805 15.3711H12.7524C13.6157 15.3711 14.2687 15.1497 14.7114 14.707C15.1541 14.2699 15.3755 13.6252 15.3755 12.7729V3.23535C15.3755 2.38314 15.1541 1.73568 14.7114 1.29297C14.2687 0.85026 13.6157 0.628906 12.7524 0.628906H3.24805C2.3903 0.628906 1.7373 0.85026 1.28906 1.29297C0.846354 1.73014 0.625 2.3776 0.625 3.23535V12.7729C0.625 13.6307 0.846354 14.2782 1.28906 14.7153C1.7373 15.1525 2.3903 15.3711 3.24805 15.3711ZM3.37256 13.7192C3.02393 13.7192 2.75553 13.6279 2.56738 13.4453C2.38477 13.2627 2.29346 12.986 2.29346 12.6152V3.39307C2.29346 3.0223 2.38477 2.74561 2.56738 2.56299C2.75553 2.38037 3.02393 2.28906 3.37256 2.28906H12.6279C12.9766 2.28906 13.245 2.38037 13.4331 2.56299C13.6213 2.74561 13.7153 3.0223 13.7153 3.39307V12.6152C13.7153 12.986 13.6213 13.2627 13.4331 13.4453C13.245 13.6279 12.9766 13.7192 12.6279 13.7192H3.37256Z" fill="white"/>
</svg>
