<svg width="18" height="18" viewBox="0 0 18 18" fill="none" xmlns="http://www.w3.org/2000/svg">
<g opacity="0.6">
<path fill-rule="evenodd" clip-rule="evenodd" d="M1 4.42857C1 2.53502 2.53502 1 4.42857 1H13.5714C15.465 1 17 2.53502 17 4.42857V13.5714C17 15.465 15.465 17 13.5714 17H4.42857C2.53502 17 1 15.465 1 13.5714V4.42857ZM2.38398 4.2H15.616C15.5023 3.17144 14.6303 2.37143 13.5714 2.37143H4.42857C3.3697 2.37143 2.49769 3.17144 2.38398 4.2ZM15.6286 5.57143H2.37143V13.5714C2.37143 14.7076 3.29244 15.6286 4.42857 15.6286H13.5714C14.7076 15.6286 15.6286 14.7076 15.6286 13.5714V5.57143Z" fill="white"/>
<path fill-rule="evenodd" clip-rule="evenodd" d="M11.0013 6.83674C10.8527 6.72696 10.6696 6.67416 10.4853 6.68794C10.3011 6.70172 10.1278 6.78126 9.99713 6.91193C9.85264 7.0566 9.77148 7.2527 9.77148 7.45717C9.77148 7.66163 9.85275 7.85785 9.99724 8.00252L12.5384 10.5437L9.99088 13.0912L9.92794 13.1636L9.92166 13.1722C9.8068 13.3287 9.75521 13.5229 9.77718 13.7158C9.79916 13.9088 9.89309 14.0863 10.0402 14.2131C10.1874 14.3398 10.3769 14.4064 10.5709 14.3996C10.765 14.3928 10.9501 14.3123 11.0879 14.1755L14.1808 11.0827L14.2435 11.0106L14.2495 11.0024C14.3593 10.8537 14.4121 10.6706 14.3983 10.4864C14.3845 10.3021 14.3051 10.1289 14.1744 9.9983L11.0816 6.90546L11.0095 6.8428L11.0013 6.83674Z" fill="white"/>
<path fill-rule="evenodd" clip-rule="evenodd" d="M6.99928 6.83674C7.14791 6.72696 7.33099 6.67416 7.51525 6.68794C7.69951 6.70172 7.87279 6.78126 8.00343 6.91193C8.14792 7.0566 8.22908 7.2527 8.22908 7.45717C8.22908 7.66163 8.14781 7.85785 8.00332 8.00252L5.46217 10.5437L8.00968 13.0912L8.07262 13.1636L8.0789 13.1722C8.19376 13.3287 8.24535 13.5229 8.22338 13.7158C8.2014 13.9088 8.10747 14.0863 7.96034 14.2131C7.81321 14.3398 7.6237 14.4064 7.42962 14.3996C7.23555 14.3928 7.05047 14.3123 6.91262 14.1755L3.81976 11.0827L3.75711 11.0106L3.75105 11.0024C3.64127 10.8537 3.58847 10.6706 3.60225 10.4864C3.61603 10.3021 3.69549 10.1289 3.82615 9.99829L6.91898 6.90546L6.99109 6.8428L6.99928 6.83674Z" fill="white"/>
</g>
</svg>
