<svg width="22" height="22" viewBox="0 0 22 22" fill="none" xmlns="http://www.w3.org/2000/svg">
<path fill-rule="evenodd" clip-rule="evenodd" d="M16.8981 14.9966C17.6815 13.8242 18.0997 12.4459 18.0998 11.0359C18.0999 10.0996 17.9155 9.17247 17.5572 8.30744C17.1989 7.44241 16.6738 6.65642 16.0117 5.99436C15.3496 5.3323 14.5636 4.80713 13.6986 4.44885C12.8336 4.09057 11.9064 3.9062 10.9702 3.90625C9.56015 3.90633 8.18184 4.32451 7.00951 5.10791C5.83717 5.89132 4.92346 7.00476 4.38392 8.30744C3.84437 9.61012 3.70322 11.0435 3.97832 12.4264C4.25341 13.8093 4.9324 15.0796 5.92942 16.0766C6.92644 17.0737 8.19671 17.7526 9.57961 18.0277C10.9625 18.3028 12.3959 18.1617 13.6986 17.6221C15.0013 17.0826 16.1147 16.1689 16.8981 14.9966ZM15.5463 10.4645C15.6589 10.6344 15.719 10.8337 15.7192 11.0375C15.7191 11.2386 15.6606 11.4353 15.5508 11.6039C15.4411 11.7725 15.2847 11.9056 15.1008 11.9871C15.1168 12.0905 15.1249 12.1949 15.125 12.2996C15.125 13.899 13.2629 15.196 10.9662 15.196C8.6696 15.196 6.80746 13.899 6.80746 12.2996C6.80771 12.1942 6.81609 12.0891 6.83252 11.9851C6.69405 11.9233 6.57079 11.8319 6.47139 11.7174C6.37198 11.6029 6.29884 11.468 6.25709 11.3223C6.21534 11.1765 6.206 11.0233 6.22972 10.8736C6.25345 10.7238 6.30965 10.5811 6.39441 10.4553C6.47916 10.3296 6.5904 10.2239 6.72033 10.1457C6.85025 10.0676 6.99571 10.0188 7.1465 10.0028C7.29729 9.98676 7.44975 10.004 7.59318 10.0531C7.73662 10.1023 7.86756 10.1823 7.9768 10.2875C8.69627 9.77049 9.69141 9.43743 10.7981 9.40671L11.3268 6.92049C11.3319 6.89659 11.3417 6.87394 11.3555 6.85383C11.3694 6.83372 11.3871 6.81654 11.4076 6.80327C11.428 6.78988 11.4508 6.78069 11.4747 6.77625C11.4987 6.77181 11.5233 6.7722 11.5471 6.7774L13.275 7.14441C13.3551 6.98208 13.4917 6.85453 13.6591 6.7857C13.8266 6.71686 14.0134 6.71145 14.1845 6.77048C14.3556 6.82952 14.4994 6.94895 14.5887 7.10637C14.6781 7.2638 14.707 7.44842 14.67 7.62562C14.633 7.80283 14.5326 7.96045 14.3877 8.06893C14.2427 8.17742 14.0632 8.22932 13.8828 8.21492C13.7023 8.20051 13.5333 8.12078 13.4074 7.99067C13.2816 7.86057 13.2075 7.68902 13.199 7.50819L11.6518 7.17917L11.1781 9.40913C12.2686 9.44713 13.2475 9.77857 13.9585 10.2915C14.1051 10.1498 14.2902 10.0544 14.4906 10.0172C14.6911 9.9799 14.898 10.0025 15.0858 10.082C15.2735 10.1616 15.4336 10.2946 15.5463 10.4645ZM15.7192 11.0375C15.7192 11.0375 15.7192 11.0376 15.7192 11.0376V11.0372C15.7192 11.0373 15.7192 11.0374 15.7192 11.0375ZM8.71629 11.3677C8.63472 11.4898 8.59118 11.6333 8.59118 11.7802C8.5915 11.9771 8.66989 12.1658 8.80916 12.305C8.94842 12.4442 9.1372 12.5225 9.3341 12.5227C9.48094 12.5226 9.62445 12.479 9.74651 12.3973C9.86856 12.3157 9.96366 12.1997 10.0198 12.064C10.0759 11.9283 10.0906 11.7791 10.0619 11.6351C10.0332 11.491 9.96244 11.3588 9.85859 11.255C9.75473 11.1512 9.62242 11.0805 9.4784 11.0519C9.33438 11.0233 9.18511 11.038 9.04945 11.0942C8.9138 11.1504 8.79786 11.2456 8.71629 11.3677ZM10.9687 14.2878C11.254 14.2878 12.2253 14.2486 12.7322 13.7425C12.7507 13.7249 12.7656 13.7036 12.7758 13.6802C12.786 13.6567 12.7915 13.6314 12.7918 13.6057C12.7921 13.5801 12.7873 13.5547 12.7777 13.5309C12.768 13.5072 12.7537 13.4856 12.7356 13.4675C12.7176 13.4493 12.696 13.435 12.6723 13.4253C12.6486 13.4156 12.6232 13.4107 12.5976 13.4109C12.5719 13.4112 12.5466 13.4165 12.5231 13.4267C12.4996 13.4369 12.4783 13.4516 12.4606 13.4701C12.1409 13.7898 11.4569 13.903 10.9687 13.903C10.4804 13.903 9.79691 13.7898 9.47759 13.4701C9.45973 13.4522 9.43852 13.438 9.41517 13.4283C9.39182 13.4186 9.3668 13.4137 9.34152 13.4136C9.31624 13.4136 9.2912 13.4186 9.26784 13.4282C9.24448 13.4379 9.22325 13.452 9.20536 13.4699C9.18747 13.4878 9.17328 13.509 9.16359 13.5323C9.1539 13.5557 9.1489 13.5807 9.14888 13.606C9.14886 13.6313 9.15382 13.6563 9.16348 13.6797C9.17313 13.703 9.1873 13.7242 9.20516 13.7421C9.71162 14.2474 10.6833 14.2878 10.9687 14.2878ZM12.1891 12.3975C12.3112 12.4791 12.4548 12.5227 12.6016 12.5227C12.7985 12.5225 12.9872 12.4442 13.1264 12.305C13.2656 12.1658 13.3439 11.977 13.3441 11.7802C13.3441 11.6333 13.3006 11.4897 13.219 11.3676C13.1374 11.2455 13.0215 11.1504 12.8858 11.0942C12.7501 11.038 12.6008 11.0233 12.4568 11.0519C12.3127 11.0806 12.1804 11.1513 12.0766 11.2551C11.9728 11.359 11.902 11.4913 11.8734 11.6353C11.8447 11.7793 11.8594 11.9286 11.9156 12.0643C11.9718 12.2 12.067 12.3159 12.1891 12.3975Z" fill="white"/>
</svg>
