<svg width="18" height="18" viewBox="0 0 18 18" fill="none" xmlns="http://www.w3.org/2000/svg">
<g opacity="0.6">
<path d="M16.876 3.5745L11.8235 1.04825C11.7065 0.989708 11.5775 0.959229 11.4467 0.959229C11.3159 0.959229 11.1868 0.989708 11.0698 1.04825L6.32891 3.41872L1.60818 1.84486C1.48159 1.8027 1.34679 1.79122 1.21489 1.81137C1.08299 1.83153 0.95777 1.88274 0.849545 1.96078C0.741319 2.03882 0.653189 2.14147 0.592416 2.26026C0.531643 2.37904 0.499968 2.51057 0.5 2.644V13.5919C0.5 13.9111 0.680206 14.2024 0.965672 14.3448L6.01818 16.871C6.13517 16.929 6.26399 16.9592 6.39459 16.9592C6.52518 16.9592 6.65401 16.929 6.771 16.871L11.5119 14.5014L16.2327 16.0752C16.3593 16.1176 16.4941 16.1292 16.6261 16.1091C16.7581 16.0891 16.8834 16.0379 16.9916 15.9598C17.0999 15.8817 17.1881 15.779 17.2488 15.6601C17.3095 15.5412 17.3411 15.4096 17.3408 15.2761V4.32733C17.3412 4.17099 17.2979 4.01766 17.2158 3.88464C17.1336 3.75161 17.016 3.64419 16.876 3.5745ZM7.23667 4.84858L10.605 3.16441V13.0698L7.23667 14.754V4.84858ZM2.18417 3.81197L5.5525 4.93447V14.754L2.18417 13.0698V3.81197ZM15.6575 14.1081L12.2892 12.9848V3.16441L15.6575 4.84858V14.1081Z" fill="white"/>
</g>
</svg>
