<svg width="15" height="18" viewBox="0 0 15 18" fill="none" xmlns="http://www.w3.org/2000/svg">
<path d="M14.6 10.2551V3.79844C14.6 3.26039 14.4942 2.86743 14.2826 2.61956C14.0771 2.36565 13.7476 2.14196 13.2942 1.9485C13.0644 1.85178 12.7198 1.71877 12.2604 1.5495C11.8009 1.37418 11.3052 1.19281 10.7732 1.0054C10.2412 0.811941 9.74542 0.63662 9.28596 0.479436C8.83255 0.322251 8.494 0.213431 8.27031 0.152976C8.11917 0.110657 7.95896 0.0743838 7.78969 0.044156C7.62041 0.00788274 7.46021 -0.0102539 7.30907 -0.0102539C7.14584 -0.0102539 6.97959 0.00485997 6.81031 0.0350877C6.64104 0.0592699 6.48385 0.098566 6.33876 0.152976C6.10903 0.225523 5.76443 0.340388 5.30497 0.497572C4.85155 0.654756 4.35884 0.827055 3.82683 1.01447C3.30087 1.20188 2.80816 1.38022 2.3487 1.5495C1.88923 1.71877 1.54162 1.85178 1.30584 1.9485C0.858468 2.14196 0.528986 2.36565 0.317391 2.61956C0.105797 2.86743 0 3.26039 0 3.79844V10.2551C0 11.035 0.117888 11.7211 0.353665 12.3136C0.589441 12.9 0.967288 13.4471 1.48721 13.955C2.00712 14.4628 2.69329 14.9827 3.54571 15.5147C4.39814 16.0467 5.44402 16.6452 6.68335 17.3102C6.79822 17.3707 6.91006 17.416 7.01888 17.4463C7.1277 17.4765 7.22443 17.4916 7.30907 17.4916C7.38162 17.4916 7.4723 17.4765 7.58112 17.4463C7.69598 17.416 7.80783 17.3707 7.91665 17.3102C9.14994 16.6392 10.1928 16.0377 11.0452 15.5056C11.8976 14.9736 12.5838 14.4537 13.1037 13.9459C13.6297 13.4381 14.0106 12.8909 14.2463 12.3045C14.4821 11.7181 14.6 11.035 14.6 10.2551ZM7.17304 15.5601C7.11863 15.5419 7.06422 15.5208 7.00981 15.4966C6.96145 15.4724 6.89797 15.4361 6.81938 15.3878C5.86418 14.8074 5.06012 14.3117 4.40721 13.9006C3.75429 13.4834 3.23135 13.0905 2.83839 12.7217C2.44542 12.3529 2.16128 11.9509 1.98596 11.5156C1.81064 11.0743 1.72298 10.5453 1.72298 9.92863V4.07049C1.72298 3.91935 1.74414 3.80449 1.78646 3.7259C1.82878 3.6473 1.91039 3.58685 2.0313 3.54453C2.28522 3.45385 2.5754 3.35107 2.90186 3.23621C3.23437 3.11529 3.58199 2.99136 3.94472 2.8644C4.30745 2.7314 4.66716 2.60142 5.02385 2.47447C5.38054 2.34751 5.71304 2.2266 6.02137 2.11173C6.32969 1.99687 6.59267 1.89712 6.81031 1.81248C6.8889 1.78225 6.9554 1.76109 7.00981 1.749C7.06422 1.73691 7.11863 1.72784 7.17304 1.7218V15.5601Z" fill="white"/>
</svg>
