<svg width="23" height="22" viewBox="0 0 23 22" fill="none" xmlns="http://www.w3.org/2000/svg">
<path d="M18.7883 6.85294C18.2581 7.08553 17.6931 7.2397 17.104 7.31455C17.71 6.95274 18.1725 6.38419 18.3899 5.69889C17.825 6.03574 17.2011 6.27368 16.5363 6.40647C15.9999 5.83523 15.2352 5.48145 14.4011 5.48145C12.7828 5.48145 11.4799 6.79501 11.4799 8.40533C11.4799 8.63703 11.4995 8.85982 11.5476 9.07191C9.11746 8.95339 6.9671 7.78865 5.52253 6.01436C5.27034 6.45191 5.1224 6.95274 5.1224 7.49189C5.1224 8.50425 5.64373 9.40164 6.42082 9.92119C5.95118 9.91227 5.49045 9.77593 5.10013 9.56116C5.10013 9.57007 5.10013 9.58166 5.10013 9.59324C5.10013 11.0137 6.11337 12.1936 7.44208 12.4654C7.20415 12.5305 6.94482 12.5617 6.67569 12.5617C6.48855 12.5617 6.29962 12.551 6.12228 12.5118C6.50102 13.6694 7.57576 14.5204 8.85368 14.5481C7.85915 15.3261 6.59638 15.7948 5.22934 15.7948C4.98962 15.7948 4.7597 15.7841 4.52979 15.7547C5.82464 16.5897 7.35921 17.0665 9.01409 17.0665C14.3931 17.0665 17.3339 12.6107 17.3339 8.74842C17.3339 8.61921 17.3295 8.49445 17.3232 8.37057C17.9034 7.95886 18.3908 7.44466 18.7883 6.85294Z" fill="white"/>
</svg>
