<svg width="18" height="18" viewBox="0 0 18 18" fill="none" xmlns="http://www.w3.org/2000/svg">
<g opacity="0.6">
<path fill-rule="evenodd" clip-rule="evenodd" d="M6.51847 2.29518C7.47562 2.43698 8.16349 2.70967 9 3.1618C9.83651 2.70967 10.5244 2.43698 11.4815 2.29518C12.5087 2.14301 13.8486 2.14303 16.0411 2.14307H16.0412L16.1429 2.14307C16.6162 2.14307 17 2.52683 17 3.00021V13.8574C17 14.3307 16.6162 14.7145 16.1429 14.7145C12.6704 14.7145 11.1946 14.7333 9.42526 15.7444C9.16175 15.895 8.83825 15.895 8.57474 15.7444C7.6182 15.1978 7.08174 14.9688 6.26724 14.8481C5.3816 14.7169 4.17562 14.7145 1.85714 14.7145C1.38376 14.7145 1 14.3307 1 13.8574V3.00021C1 2.52683 1.38376 2.14307 1.85714 2.14307L1.95883 2.14307H1.95886C4.15136 2.14303 5.49133 2.14301 6.51847 2.29518ZM2.71429 13.0005V3.85776C4.48665 3.8602 5.49784 3.87697 6.26724 3.99096C6.96907 4.09493 7.46446 4.27939 8.20006 4.67813V13.6259C7.67664 13.4 7.15759 13.247 6.51847 13.1523C5.61493 13.0185 4.46933 13.0024 2.71429 13.0005ZM9.91434 13.6282C11.4665 13.0586 13.0536 13.0055 15.2857 13.0007V3.85776C13.5133 3.8602 12.5022 3.87697 11.7328 3.99096C11.0679 4.08945 10.5883 4.26016 9.91434 4.61683V13.6282Z" fill="white"/>
</g>
</svg>
