<svg width="16" height="16" viewBox="0 0 16 16" fill="none" xmlns="http://www.w3.org/2000/svg">
<path fill-rule="evenodd" clip-rule="evenodd" d="M2.68737 0.916796C2.19837 0.4278 1.40555 0.4278 0.916553 0.916796C0.427556 1.40579 0.427555 2.19861 0.916551 2.68761L6.22901 8.00007L0.916592 13.3125C0.427596 13.8015 0.427597 14.5943 0.916594 15.0833C1.40559 15.5723 2.19841 15.5723 2.68741 15.0833L7.99983 9.77088L13.3122 15.0833C13.8012 15.5723 14.5941 15.5723 15.0831 15.0833C15.5721 14.5943 15.5721 13.8015 15.0831 13.3125L9.77064 8.00007L15.0831 2.68761C15.5721 2.19861 15.5721 1.40579 15.0831 0.916796C14.5941 0.4278 13.8013 0.4278 13.3123 0.916796L7.99983 6.22926L2.68737 0.916796Z" fill="#EBEFF9" fill-opacity="0.3"/>
</svg>
