<svg width="116" height="60" viewBox="0 0 116 60" fill="none" xmlns="http://www.w3.org/2000/svg">
<path d="M0 0H42V56C42 58.2091 40.2091 60 38 60H4C1.79086 60 0 58.2091 0 56V0Z" fill="#E22440"/>
<path d="M0.5 0.5H41.5V56C41.5 57.933 39.933 59.5 38 59.5H4C2.067 59.5 0.5 57.933 0.5 56V0.5Z" stroke="url(#paint0_linear_207_8983)" stroke-opacity="0.3"/>
<path d="M24.7463 50.4013L22.1783 47.8113C21.449 47.0758 20.2697 47.0758 19.5482 47.8113L16.9801 50.4013C16.2276 51.1603 15.0017 51.1603 14.2492 50.4013L13.0078 49.1494L16.9413 45.1822C19.1059 42.9991 22.6127 42.9991 24.7773 45.1822L28.7108 49.1494L27.4695 50.4013C26.7247 51.1603 25.5066 51.1603 24.7463 50.4013Z" fill="white"/>
<path d="M10.8058 46.9202L9.56442 45.6683C8.81186 44.9093 8.81186 43.673 9.56442 42.914L12.1325 40.324C12.8618 39.5885 12.8618 38.3991 12.1325 37.6714L9.56442 35.0814C8.81186 34.3225 8.81186 33.0861 9.56442 32.3271L10.8058 31.0752L14.7393 35.0423C16.9039 37.2254 16.9039 40.7622 14.7393 42.9453L10.8058 46.9202Z" fill="white"/>
<path d="M20.8984 34.4237C19.4786 34.4237 18.0588 33.8838 16.9804 32.7883L13.0469 28.8212L14.2882 27.5692C15.0408 26.8103 16.2666 26.8103 17.0192 27.5692L19.5872 30.1592C20.3088 30.8869 21.4958 30.8869 22.2173 30.1592L24.7854 27.5692C25.5379 26.8103 26.7638 26.8103 27.5163 27.5692L28.7577 28.8212L24.8242 32.7883C23.738 33.8681 22.3182 34.4237 20.8984 34.4237Z" fill="white"/>
<path d="M30.9632 46.888L27.0297 42.9209C24.8651 40.7378 24.8651 37.201 27.0297 35.0179L30.9632 31.0508L32.2046 32.3027C32.9571 33.0617 32.9571 34.298 32.2046 35.057L29.6365 37.647C28.9072 38.3825 28.9072 39.5719 29.6365 40.2996L32.2046 42.8896C32.9571 43.6486 32.9571 44.8849 32.2046 45.6439L30.9632 46.888Z" fill="white"/>
<g opacity="0.9">
<path d="M57.5681 47.0001C60.7214 47.0001 62.1872 45.432 62.1872 43.6082C62.1872 39.2276 54.9602 41.0514 54.9602 38.1367C54.9602 37.097 55.8295 36.2447 57.8578 36.2447C58.9146 36.2447 60.0907 36.5515 61.1305 37.2163L61.6929 35.8527C60.7043 35.1709 59.2555 34.7959 57.8578 34.7959C54.7215 34.7959 53.2898 36.364 53.2898 38.2049C53.2898 42.6366 60.5168 40.7957 60.5168 43.7104C60.5168 44.7502 59.6305 45.5513 57.5681 45.5513C56.034 45.5513 54.517 44.9718 53.6307 44.1706L53 45.5001C53.9545 46.3865 55.7442 47.0001 57.5681 47.0001Z" fill="white"/>
<path d="M68.2438 46.8637H69.9313V36.4152H74.0221V34.9323H64.153V36.4152H68.2438V46.8637Z" fill="white"/>
<path d="M85.5574 46.8637H87.3471L81.9268 34.9323H80.2393L74.8361 46.8637H76.5917L77.9042 43.8809H84.2449L85.5574 46.8637ZM78.5008 42.5173L81.0745 36.6708L83.6483 42.5173H78.5008Z" fill="white"/>
<path d="M98.9449 46.8637H100.939L95.5188 40.3014L100.615 34.9323H98.6722L92.1951 41.5968V34.9323H90.4906V46.8637H92.1951V43.7786L94.3768 41.5628L98.9449 46.8637Z" fill="white"/>
<path d="M105.81 45.3808V41.5287H111.793V40.0798H105.81V36.4152H112.525V34.9323H104.105V46.8637H112.764V45.3808H105.81Z" fill="white"/>
</g>
<defs>
<linearGradient id="paint0_linear_207_8983" x1="19.5" y1="71.5" x2="18" y2="53" gradientUnits="userSpaceOnUse">
<stop/>
<stop offset="1" stop-opacity="0"/>
</linearGradient>
</defs>
</svg>
