<svg width="18" height="18" viewBox="0 0 18 18" fill="none" xmlns="http://www.w3.org/2000/svg">
<g opacity="0.7">
<path d="M5.8252 4.56738C5.52083 4.56738 5.26351 4.67806 5.05322 4.89941C4.84847 5.11523 4.74609 5.39193 4.74609 5.72949C4.74609 5.98958 4.80697 6.23861 4.92871 6.47656C5.05599 6.71452 5.2137 6.93587 5.40186 7.14062C5.59554 7.33984 5.79199 7.51969 5.99121 7.68018C6.19596 7.83512 6.37581 7.96517 6.53076 8.07031C6.5695 8.09798 6.60824 8.12012 6.64697 8.13672C6.68571 8.15332 6.71615 8.16162 6.73828 8.16162C6.77148 8.16162 6.80469 8.15332 6.83789 8.13672C6.87663 8.11458 6.9126 8.09245 6.9458 8.07031C7.10075 7.97624 7.2806 7.85173 7.48535 7.69678C7.6901 7.5363 7.88656 7.35368 8.07471 7.14893C8.26286 6.94417 8.41781 6.72282 8.53955 6.48486C8.6613 6.24137 8.72217 5.98958 8.72217 5.72949C8.72217 5.39193 8.61979 5.11523 8.41504 4.89941C8.21029 4.67806 7.9502 4.56738 7.63477 4.56738C7.43555 4.56738 7.2557 4.62272 7.09521 4.7334C6.94027 4.83854 6.82129 4.97412 6.73828 5.14014C6.64974 4.97412 6.52799 4.83854 6.37305 4.7334C6.2181 4.62272 6.03548 4.56738 5.8252 4.56738ZM5.26074 10.5439H12.6816C12.8255 10.5439 12.9445 10.4941 13.0386 10.3945C13.1382 10.2949 13.188 10.1732 13.188 10.0293C13.188 9.89095 13.1382 9.77474 13.0386 9.68066C12.9445 9.58105 12.8255 9.53125 12.6816 9.53125H5.26074C5.11686 9.53125 4.99512 9.58105 4.89551 9.68066C4.7959 9.77474 4.74609 9.89095 4.74609 10.0293C4.74609 10.1732 4.7959 10.2949 4.89551 10.3945C4.99512 10.4941 5.11686 10.5439 5.26074 10.5439ZM5.26074 13.084H10.7642C10.908 13.084 11.0298 13.0369 11.1294 12.9429C11.229 12.8433 11.2788 12.7243 11.2788 12.5859C11.2788 12.4421 11.229 12.3231 11.1294 12.229C11.0298 12.1294 10.908 12.0796 10.7642 12.0796H5.26074C5.11686 12.0796 4.99512 12.1294 4.89551 12.229C4.7959 12.3231 4.74609 12.4421 4.74609 12.5859C4.74609 12.7243 4.7959 12.8433 4.89551 12.9429C4.99512 13.0369 5.11686 13.084 5.26074 13.084ZM4.24805 16.3711H13.7524C14.6157 16.3711 15.2687 16.1497 15.7114 15.707C16.1541 15.2699 16.3755 14.6252 16.3755 13.7729V4.23535C16.3755 3.38314 16.1541 2.73568 15.7114 2.29297C15.2687 1.85026 14.6157 1.62891 13.7524 1.62891H4.24805C3.3903 1.62891 2.7373 1.85026 2.28906 2.29297C1.84635 2.73014 1.625 3.3776 1.625 4.23535V13.7729C1.625 14.6307 1.84635 15.2782 2.28906 15.7153C2.7373 16.1525 3.3903 16.3711 4.24805 16.3711ZM4.37256 14.7192C4.02393 14.7192 3.75553 14.6279 3.56738 14.4453C3.38477 14.2627 3.29346 13.986 3.29346 13.6152V4.39307C3.29346 4.0223 3.38477 3.74561 3.56738 3.56299C3.75553 3.38037 4.02393 3.28906 4.37256 3.28906H13.6279C13.9766 3.28906 14.245 3.38037 14.4331 3.56299C14.6213 3.74561 14.7153 4.0223 14.7153 4.39307V13.6152C14.7153 13.986 14.6213 14.2627 14.4331 14.4453C14.245 14.6279 13.9766 14.7192 13.6279 14.7192H4.37256Z" fill="white"/>
</g>
</svg>
