<svg width="18" height="18" viewBox="0 0 18 18" fill="none" xmlns="http://www.w3.org/2000/svg">
<g opacity="0.6">
<path fill-rule="evenodd" clip-rule="evenodd" d="M9 1.19727C4.58 1.19727 1 4.77727 1 9.19727C1 12.7373 3.29 15.7273 6.47 16.7873C6.87 16.8573 7.02 16.6173 7.02 16.4073C7.02 16.2173 7.01 15.5873 7.01 14.9173C5 15.2873 4.48 14.4273 4.32 13.9773C4.23 13.7473 3.84 13.0373 3.5 12.8473C3.22 12.6973 2.82 12.3273 3.49 12.3173C4.12 12.3073 4.57 12.8973 4.72 13.1373C5.44 14.3473 6.59 14.0073 7.05 13.7973C7.12 13.2773 7.33 12.9273 7.56 12.7273C5.78 12.5273 3.92 11.8373 3.92 8.77727C3.92 7.90727 4.23 7.18727 4.74 6.62727C4.66 6.42727 4.38 5.60727 4.82 4.50727C4.82 4.50727 5.49 4.29727 7.02 5.32727C7.66 5.14727 8.34 5.05727 9.02 5.05727C9.7 5.05727 10.38 5.14727 11.02 5.32727C12.55 4.28727 13.22 4.50727 13.22 4.50727C13.66 5.60727 13.38 6.42727 13.3 6.62727C13.81 7.18727 14.12 7.89727 14.12 8.77727C14.12 11.8473 12.25 12.5273 10.47 12.7273C10.76 12.9773 11.01 13.4573 11.01 14.2073C11.01 15.2773 11 16.1373 11 16.4073C11 16.6173 11.15 16.8673 11.55 16.7873C13.1381 16.2511 14.5181 15.2304 15.4958 13.8688C16.4734 12.5073 16.9995 10.8735 17 9.19727C17 4.77727 13.42 1.19727 9 1.19727Z" fill="white"/>
</g>
</svg>
