<svg width="18" height="18" viewBox="0 0 18 18" fill="none" xmlns="http://www.w3.org/2000/svg">
<g opacity="0.7" clip-path="url(#clip0_267_18289)">
<path d="M16.6 10.2551V3.79844C16.6 3.26039 16.4942 2.86743 16.2826 2.61956C16.0771 2.36565 15.7476 2.14196 15.2942 1.9485C15.0644 1.85178 14.7198 1.71877 14.2604 1.5495C13.8009 1.37418 13.3052 1.19281 12.7732 1.0054C12.2412 0.811941 11.7454 0.63662 11.286 0.479436C10.8325 0.322251 10.494 0.213431 10.2703 0.152976C10.1192 0.110657 9.95897 0.0743838 9.78969 0.044156C9.62041 0.00788274 9.46021 -0.0102539 9.30907 -0.0102539C9.14584 -0.0102539 8.97959 0.00485997 8.81031 0.0350877C8.64104 0.0592699 8.48385 0.098566 8.33876 0.152976C8.10903 0.225522 7.76443 0.340388 7.30497 0.497572C6.85155 0.654756 6.35884 0.827055 5.82683 1.01447C5.30087 1.20188 4.80816 1.38022 4.3487 1.5495C3.88923 1.71877 3.54161 1.85178 3.30584 1.9485C2.85847 2.14196 2.52899 2.36565 2.31739 2.61956C2.1058 2.86743 2 3.26039 2 3.79844V10.2551C2 11.035 2.11789 11.7211 2.35366 12.3136C2.58944 12.9 2.96729 13.4471 3.48721 13.955C4.00712 14.4628 4.69329 14.9827 5.54571 15.5147C6.39814 16.0467 7.44402 16.6452 8.68335 17.3102C8.79822 17.3707 8.91006 17.416 9.01888 17.4463C9.1277 17.4765 9.22443 17.4916 9.30907 17.4916C9.38162 17.4916 9.4723 17.4765 9.58112 17.4463C9.69598 17.416 9.80783 17.3707 9.91665 17.3102C11.1499 16.6392 12.1928 16.0377 13.0452 15.5056C13.8976 14.9736 14.5838 14.4537 15.1037 13.9459C15.6297 13.4381 16.0106 12.8909 16.2463 12.3045C16.4821 11.7181 16.6 11.035 16.6 10.2551ZM9.17304 15.5601C9.11863 15.5419 9.06422 15.5208 9.00981 15.4966C8.96145 15.4724 8.89797 15.4361 8.81938 15.3878C7.86418 14.8074 7.06012 14.3117 6.40721 13.9006C5.75429 13.4834 5.23135 13.0905 4.83839 12.7217C4.44542 12.3529 4.16128 11.9509 3.98596 11.5156C3.81064 11.0743 3.72298 10.5453 3.72298 9.92863V4.07049C3.72298 3.91935 3.74414 3.80449 3.78646 3.7259C3.82878 3.6473 3.91039 3.58685 4.0313 3.54453C4.28522 3.45385 4.5754 3.35107 4.90186 3.23621C5.23437 3.11529 5.58199 2.99136 5.94472 2.8644C6.30745 2.7314 6.66716 2.60142 7.02385 2.47447C7.38054 2.34751 7.71304 2.2266 8.02137 2.11173C8.32969 1.99687 8.59267 1.89712 8.81031 1.81248C8.8889 1.78225 8.9554 1.76109 9.00981 1.749C9.06422 1.73691 9.11863 1.72784 9.17304 1.7218V15.5601Z" fill="white"/>
</g>
<defs>
<clipPath id="clip0_267_18289">
<rect width="18" height="18" fill="white"/>
</clipPath>
</defs>
</svg>
