<svg width="20" height="20" viewBox="0 0 20 20" fill="none" xmlns="http://www.w3.org/2000/svg">
<path d="M16.0922 15.9107V15.9102H16.0951V11.3483C16.0951 9.11659 15.6429 7.39746 13.187 7.39746C12.0063 7.39746 11.214 8.08573 10.8906 8.73825H10.8564V7.60581H8.52783V15.9102H10.9525V11.7982C10.9525 10.7155 11.1457 9.66855 12.4078 9.66855C13.6514 9.66855 13.67 10.9041 13.67 11.8676V15.9107H16.0922Z" fill="white"/>
<path d="M3.79785 7.88135H6.535V16.0928H3.79785V7.88135Z" fill="white"/>
<path d="M5.21672 3.6167C4.43344 3.6167 3.79785 4.24932 3.79785 5.02895C3.79785 5.80859 4.43344 6.45444 5.21672 6.45444C6.00001 6.45444 6.63559 5.80859 6.63559 5.02895C6.6351 4.24932 5.99951 3.6167 5.21672 3.6167V3.6167Z" fill="white"/>
</svg>
