<svg width="48" height="48" viewBox="0 0 48 48" fill="none" xmlns="http://www.w3.org/2000/svg">
<rect x="4" y="4.01453" width="39.6914" height="39.6914" rx="9.80035" fill="#FAFAFA"/>
<path d="M16.5259 34.6884L19.6264 29.3381L22.727 24.0066L25.8086 18.6563L26.3191 17.8085L26.546 18.6563L27.4912 22.1792L26.4325 24.0066L23.332 29.3381L20.2503 34.6884H23.9559L27.0564 29.3381L28.6634 26.5688L29.4196 29.3381L30.8565 34.6884H34.1839L32.7471 29.3381L31.3102 24.0066L30.9321 22.6314L33.2386 18.6563H29.8734L29.76 18.2607L28.5878 13.89L28.4365 13.3248H25.2036L25.128 13.4379L22.1031 18.6563L19.0025 24.0066L15.9209 29.3381L12.8203 34.6884H16.5259Z" fill="black"/>
<rect x="2.03993" y="2.05446" width="43.6115" height="43.6115" rx="11.7604" stroke="white" stroke-opacity="0.05" stroke-width="3.92014"/>
</svg>
