<svg width="28" height="28" viewBox="0 0 28 28" fill="none" xmlns="http://www.w3.org/2000/svg">
<circle cx="14" cy="14" r="12.7273" fill="white"/>
<path d="M9.0126 20.3635L11.2292 16.5386L13.4457 12.7272L15.6488 8.90227L16.0137 8.29621L16.1759 8.90227L16.8517 11.4208L16.0948 12.7272L13.8782 16.5386L11.6752 20.3635H14.3243L16.5408 16.5386L17.6897 14.5588L18.2303 16.5386L19.2575 20.3635H21.6363L20.6091 16.5386L19.5819 12.7272L19.3116 11.744L20.9605 8.90227H18.5547L18.4736 8.61944L17.6356 5.49486L17.5275 5.09082H15.2163L15.1622 5.17163L12.9997 8.90227L10.7832 12.7272L8.5801 16.5386L6.36353 20.3635H9.0126Z" fill="black"/>
</svg>
