<svg width="28" height="28" viewBox="0 0 28 28" fill="none" xmlns="http://www.w3.org/2000/svg">
<circle cx="14" cy="14" r="12.7273" fill="#F3BA2F"/>
<path d="M15.8545 19.8849V21.9687L14.0807 23.0364L12.3574 21.9687V19.8849L14.0807 20.9526L15.8545 19.8849ZM6.36353 12.6778L8.08687 13.7455V17.3189L11.0544 19.1358V21.2196L6.36353 18.3866V12.6778ZM21.7979 12.6778V18.3953L17.0566 21.2282V19.1444L20.0242 17.3275V13.7541L21.7979 12.6778ZM17.0482 9.84487L18.822 10.9126V12.9964L15.8545 14.8132V18.4383L14.1312 19.506L12.4162 18.4383V14.8046L9.33944 12.9878V10.904L11.1132 9.83626L14.0807 11.6531L17.0482 9.84487ZM9.33944 14.486L11.0628 15.5537V17.6375L9.33944 16.5698V14.486ZM18.822 14.486V16.5698L17.0987 17.6375V15.5537L18.822 14.486ZM8.08687 8.02802L9.86065 9.09574L8.08687 10.1635V12.2472L6.36353 11.1795V9.09574L8.08687 8.02802ZM20.0746 8.02802L21.8484 9.09574V11.1795L20.0746 12.2472V10.1635L18.3513 9.09574L20.0746 8.02802ZM14.0807 8.02802L15.8545 9.09574L14.0807 10.1635L12.3574 9.09574L14.0807 8.02802ZM14.0807 4.45459L18.822 7.2875L17.0987 8.35522L14.1312 6.53837L11.1048 8.35522L9.38147 7.2875L14.0807 4.45459Z" fill="white"/>
</svg>
