<svg width="118" height="125" viewBox="0 0 118 125" fill="none" xmlns="http://www.w3.org/2000/svg">
<g clip-path="url(#clip0_812_1312)">
<path d="M78.5108 124.206H68.1578C66.7881 124.206 65.6812 123.095 65.6812 121.729V66.2305H81.8167V120.9C81.8167 122.727 80.3382 124.206 78.5108 124.206Z" fill="#1661BB"/>
<path d="M79.4374 124.206H72.8105V66.2305H81.8164V121.827C81.8164 123.14 80.7507 124.206 79.4374 124.206Z" fill="#3189F2"/>
<path d="M45.1665 12.9453H96.7738C108.305 12.9453 117.656 22.2927 117.656 33.8277V70.5191C117.656 71.3634 116.973 72.0463 116.129 72.0463H25.5149C25.4211 72.0463 25.3423 71.9713 25.3423 71.8737V32.7657C25.3423 21.8198 34.2168 12.9453 45.1627 12.9453H45.1665Z" fill="#2388FF"/>
<g opacity="0.07">
<path d="M51.5458 21.0127H90.5525C102.084 21.0127 111.435 30.36 111.435 41.8951V70.5187C111.435 71.363 110.752 72.0459 109.908 72.0459H31.8943C31.8005 72.0459 31.7217 71.9709 31.7217 71.8733V40.8331C31.7217 29.8872 40.5962 21.0127 51.5421 21.0127H51.5458Z" fill="#ECF1F7"/>
</g>
<g opacity="0.65">
<path d="M115.93 72.2336H58.9268V67.3555H117.653V70.5113C117.653 71.4606 116.883 72.2336 115.93 72.2336Z" fill="#4C65BA"/>
</g>
<g opacity="0.65">
<path d="M115.93 72.2336H58.9268V67.3555H117.653V70.5113C117.653 71.4606 116.883 72.2336 115.93 72.2336Z" fill="#89B7EE"/>
</g>
<path d="M116.351 72.046H90.4023V67.498H117.653V70.7439C117.653 71.4644 117.071 72.046 116.351 72.046Z" fill="#1661BB"/>
<path opacity="0.07" d="M117.653 33.959H61.7412V67.3557H117.653V33.959Z" fill="#373449"/>
<path d="M59.4895 70.7342H27.5938C26.3517 70.7342 25.3423 69.7248 25.3423 68.4827V32.2716C25.3423 22.2188 33.4888 14.0723 43.5416 14.0723C53.5944 14.0723 61.741 22.2188 61.741 32.2716V71C61.741 72.2421 60.7316 70.7342 59.4895 70.7342Z" fill="#1661BB"/>
<path d="M59.1145 70.7344H27.2188V32.6471C27.2188 23.8401 34.3597 16.6992 43.1666 16.6992C51.9736 16.6992 59.1145 23.8401 59.1145 32.6471V70.7344Z" fill="#2C2C30"/>
<path d="M57.756 77H4.62281C2.62171 77 1 75.5467 1 73.7533V71H62V73.1967C62 75.2967 60.0993 77 57.756 77Z" fill="#599AF2"/>
<path d="M57.8509 77H41.5418C39.5855 77 38 75.5467 38 73.7533V71H62V73.1967C62 75.2967 60.1418 77 57.8509 77Z" fill="#1661BB"/>
<path d="M76.376 40.3389C79.2774 40.3389 81.6294 37.9868 81.6294 35.0855C81.6294 32.1841 79.2774 29.832 76.376 29.832C73.4746 29.832 71.1226 32.1841 71.1226 35.0855C71.1226 37.9868 73.4746 40.3389 76.376 40.3389Z" fill="#1661BB"/>
<path d="M76.3761 36.774C75.4417 36.774 74.6875 36.0197 74.6875 35.0854V1.6886C74.6875 0.754241 75.4417 0 76.3761 0C77.3105 0 78.0647 0.754241 78.0647 1.6886V35.0854C78.0647 36.0197 77.3105 36.774 76.3761 36.774Z" fill="#1661BB"/>
<path d="M77.1265 39.5879C79.6134 39.5879 81.6294 37.5719 81.6294 35.085C81.6294 32.5981 79.6134 30.582 77.1265 30.582C74.6396 30.582 72.6235 32.5981 72.6235 35.085C72.6235 37.5719 74.6396 39.5879 77.1265 39.5879Z" fill="#709FE4"/>
<path d="M78.6274 9.81252V1.68848H94.0237L78.6274 9.81252Z" fill="#6D6CD4"/>
<path d="M78.6274 9.81252V1.68848H94.0237L78.6274 9.81252Z" fill="#F3BA2F"/>
<path d="M77.1266 36.774C76.1922 36.774 75.438 36.0197 75.438 35.0854V1.6886C75.438 0.754241 76.1922 0 77.1266 0C78.0609 0 78.8152 0.754241 78.8152 1.6886V35.0854C78.8152 36.0197 78.0609 36.774 77.1266 36.774Z" fill="#709FE4"/>
<path d="M77.1263 37.7125C75.6253 37.7125 74.4058 36.493 74.4058 34.992C74.4058 33.491 75.6253 32.2715 77.1263 32.2715C78.6273 32.2715 79.8468 33.491 79.8468 34.992C79.8468 36.493 78.6273 37.7125 77.1263 37.7125ZM77.1263 32.6467C75.8317 32.6467 74.781 33.6974 74.781 34.992C74.781 36.2866 75.8317 37.3373 77.1263 37.3373C78.4209 37.3373 79.4716 36.2866 79.4716 34.992C79.4716 33.6974 78.4209 32.6467 77.1263 32.6467Z" fill="#1661BB"/>
<path d="M42.6865 57.0109H2.46404C1.29702 57.0109 0.347656 56.0653 0.347656 54.8945V30.0721C0.347656 28.755 1.4171 27.6855 2.73421 27.6855H41.8009C43.3694 27.6855 44.6453 28.9576 44.6453 30.5299V55.0596C44.6453 56.1403 43.7709 57.0147 42.6902 57.0147L42.6865 57.0109Z" fill="#F3BA2F"/>
<path d="M42.2826 57.1021H2.01131C0.900587 57.1021 0 56.2015 0 55.0908V30.5948C0 30.2908 0.108821 30.0019 0.3077 29.773C0.540352 29.5066 0.941864 29.4766 1.21579 29.7017L16.6121 42.4413L19.7979 45.0755C21.16 46.2012 23.1301 46.19 24.4772 45.0455L43.3783 29C44.5603 30.1257 44.2939 31.2552 44.2939 31.2552V55.0908C44.2939 56.2015 43.3933 57.1021 42.2826 57.1021Z" fill="#C8951B"/>
<path d="M1.51453 56.8305C1.40946 56.8305 1.30814 56.7892 1.23309 56.7029C1.09425 56.5491 1.10926 56.3127 1.26311 56.1738L17.62 41.6481C17.7739 41.5093 18.014 41.5243 18.1491 41.6782C18.288 41.832 18.2729 42.0684 18.1191 42.2072L1.76219 56.7367C1.69089 56.8005 1.60083 56.8305 1.51453 56.8305Z" fill="#F3BA2F"/>
<path d="M43.1667 56.8644C43.0804 56.8644 42.9903 56.8344 42.919 56.7706L26.731 42.6839C26.5734 42.5488 26.5584 42.3124 26.6934 42.1548C26.8285 41.9972 27.0649 41.9822 27.2225 42.1173L43.4106 56.2039C43.5682 56.339 43.5832 56.5754 43.4481 56.733C43.3731 56.8194 43.268 56.8606 43.1667 56.8606V56.8644Z" fill="#F3BA2F"/>
</g>
<defs>
<clipPath id="clip0_812_1312">
<rect width="117.305" height="124.206" fill="white" transform="translate(0.347656)"/>
</clipPath>
</defs>
</svg>
