<svg width="22" height="22" viewBox="0 0 22 22" fill="none" xmlns="http://www.w3.org/2000/svg">
<rect x="0.744141" y="0.37207" width="21.2558" height="21.2558" rx="10.6279" fill="#E22440"/>
<path d="M13.6359 17.6325L12.1313 16.1278C11.7039 15.7005 11.013 15.7005 10.5902 16.1278L9.08554 17.6325C8.64459 18.0734 7.92634 18.0734 7.48539 17.6325L6.75806 16.9051L9.06281 14.6004C10.3311 13.3321 12.3858 13.3321 13.6541 14.6004L15.9589 16.9051L15.2315 17.6325C14.7951 18.0734 14.0814 18.0734 13.6359 17.6325Z" fill="white"/>
<path d="M5.46698 15.6094L4.73965 14.8821C4.2987 14.4411 4.2987 13.7229 4.73965 13.2819L6.24433 11.7773C6.67164 11.3499 6.67164 10.659 6.24433 10.2362L4.73965 8.73153C4.2987 8.29058 4.2987 7.57234 4.73965 7.13139L5.46698 6.40405L7.77173 8.7088C9.04003 9.9771 9.04003 12.0318 7.77173 13.3001L5.46698 15.6094Z" fill="white"/>
<path d="M11.3812 8.34975C10.5493 8.34975 9.71739 8.03608 9.08551 7.39966L6.78076 5.09491L7.5081 4.36758C7.94905 3.92663 8.66729 3.92663 9.10824 4.36758L10.6129 5.87226C11.0357 6.29502 11.7312 6.29502 12.154 5.87226L13.6586 4.36758C14.0996 3.92663 14.8178 3.92663 15.2588 4.36758L15.9861 5.09491L13.6814 7.39966C13.045 8.02699 12.2131 8.34975 11.3812 8.34975Z" fill="white"/>
<path d="M17.2772 15.5912L14.9725 13.2865C13.7042 12.0182 13.7042 9.96343 14.9725 8.69513L17.2772 6.39038L18.0045 7.11772C18.4455 7.55867 18.4455 8.27691 18.0045 8.71786L16.4999 10.2225C16.0726 10.6499 16.0726 11.3408 16.4999 11.7636L18.0045 13.2683C18.4455 13.7092 18.4455 14.4275 18.0045 14.8684L17.2772 15.5912Z" fill="white"/>
</svg>
