<svg width="29" height="29" viewBox="0 0 29 29" fill="none" xmlns="http://www.w3.org/2000/svg">
<rect width="28.0714" height="28.0714" rx="14.0357" fill="#2D2D30" fill-opacity="0.7"/>
<path d="M20.0917 19.9107V19.9102H20.0947V15.3483C20.0947 13.1166 19.6424 11.3975 17.1865 11.3975C16.0058 11.3975 15.2135 12.0857 14.8901 12.7382H14.8559V11.6058H12.5273V19.9102H14.952V15.7982C14.952 14.7155 15.1452 13.6686 16.4074 13.6686C17.6509 13.6686 17.6695 14.9041 17.6695 15.8676V19.9107H20.0917Z" fill="white"/>
<path d="M7.79785 11.8813H10.535V20.0928H7.79785V11.8813Z" fill="white"/>
<path d="M9.21672 7.6167C8.43344 7.6167 7.79785 8.24932 7.79785 9.02895C7.79785 9.80859 8.43344 10.4544 9.21672 10.4544C10 10.4544 10.6356 9.80859 10.6356 9.02895C10.6351 8.24932 9.99951 7.6167 9.21672 7.6167V7.6167Z" fill="white"/>
</svg>
