<svg width="29" height="29" viewBox="0 0 29 29" fill="none" xmlns="http://www.w3.org/2000/svg">
<rect x="0.928711" width="28.0714" height="28.0714" rx="14.0357" fill="#2D2D30" fill-opacity="0.7"/>
<path fill-rule="evenodd" clip-rule="evenodd" d="M20.8928 17.9966C21.6762 16.8242 22.0943 15.4459 22.0944 14.0359C22.0945 13.0996 21.9101 12.1725 21.5518 11.3074C21.1935 10.4424 20.6684 9.65642 20.0063 8.99436C19.3443 8.3323 18.5583 7.80713 17.6932 7.44885C16.8282 7.09057 15.9011 6.9062 14.9648 6.90625C13.5548 6.90633 12.1765 7.32451 11.0041 8.10791C9.8318 8.89132 8.91809 10.0048 8.37854 11.3074C7.839 12.6101 7.69785 14.0435 7.97295 15.4264C8.24804 16.8093 8.92703 18.0796 9.92405 19.0766C10.9211 20.0737 12.1913 20.7526 13.5742 21.0277C14.9571 21.3028 16.3906 21.1617 17.6932 20.6221C18.9959 20.0826 20.1094 19.1689 20.8928 17.9966ZM19.5409 13.4645C19.6535 13.6344 19.7137 13.8337 19.7138 14.0375C19.7137 14.2386 19.6552 14.4353 19.5455 14.6039C19.4357 14.7725 19.2794 14.9056 19.0954 14.9871C19.1114 15.0905 19.1195 15.1949 19.1197 15.2996C19.1197 16.899 17.2575 18.196 14.9609 18.196C12.6642 18.196 10.8021 16.899 10.8021 15.2996C10.8023 15.1942 10.8107 15.0891 10.8271 14.9851C10.6887 14.9233 10.5654 14.8319 10.466 14.7174C10.3666 14.6029 10.2935 14.468 10.2517 14.3223C10.21 14.1765 10.2006 14.0233 10.2244 13.8736C10.2481 13.7238 10.3043 13.5811 10.389 13.4553C10.4738 13.3296 10.585 13.2239 10.715 13.1457C10.8449 13.0676 10.9903 13.0188 11.1411 13.0028C11.2919 12.9868 11.4444 13.004 11.5878 13.0531C11.7312 13.1023 11.8622 13.1823 11.9714 13.2875C12.6909 12.7705 13.686 12.4374 14.7927 12.4067L15.3214 9.92049C15.3265 9.89659 15.3363 9.87394 15.3502 9.85383C15.364 9.83372 15.3817 9.81654 15.4023 9.80327C15.4226 9.78988 15.4454 9.78069 15.4694 9.77625C15.4933 9.77181 15.5179 9.7722 15.5417 9.7774L17.2697 10.1444C17.3498 9.98208 17.4863 9.85453 17.6538 9.7857C17.8212 9.71686 18.008 9.71145 18.1791 9.77048C18.3503 9.82952 18.494 9.94895 18.5834 10.1064C18.6727 10.2638 18.7016 10.4484 18.6646 10.6256C18.6276 10.8028 18.5272 10.9604 18.3823 11.0689C18.2374 11.1774 18.0579 11.2293 17.8774 11.2149C17.6969 11.2005 17.5279 11.1208 17.4021 10.9907C17.2762 10.8606 17.2021 10.689 17.1937 10.5082L15.6464 10.1792L15.1727 12.4091C16.2632 12.4471 17.2422 12.7786 17.9532 13.2915C18.0998 13.1498 18.2848 13.0544 18.4853 13.0172C18.6857 12.9799 18.8927 13.0025 19.0804 13.082C19.2681 13.1616 19.4283 13.2946 19.5409 13.4645ZM19.7138 14.0375C19.7138 14.0375 19.7138 14.0376 19.7138 14.0376V14.0372C19.7138 14.0373 19.7138 14.0374 19.7138 14.0375ZM12.7109 14.3677C12.6293 14.4898 12.5858 14.6333 12.5858 14.7802C12.5861 14.9771 12.6645 15.1658 12.8038 15.305C12.9431 15.4442 13.1318 15.5225 13.3287 15.5227C13.4756 15.5226 13.6191 15.479 13.7411 15.3973C13.8632 15.3157 13.9583 15.1997 14.0144 15.064C14.0706 14.9283 14.0852 14.7791 14.0565 14.6351C14.0278 14.491 13.9571 14.3588 13.8532 14.255C13.7494 14.1512 13.6171 14.0805 13.473 14.0519C13.329 14.0233 13.1797 14.038 13.0441 14.0942C12.9084 14.1504 12.7925 14.2456 12.7109 14.3677ZM14.9633 17.2878C15.2487 17.2878 16.22 17.2486 16.7268 16.7425C16.7454 16.7249 16.7602 16.7036 16.7704 16.6802C16.7807 16.6567 16.7861 16.6314 16.7864 16.6057C16.7867 16.5801 16.7819 16.5547 16.7723 16.5309C16.7627 16.5072 16.7484 16.4856 16.7303 16.4675C16.7122 16.4493 16.6906 16.435 16.6669 16.4253C16.6432 16.4156 16.6178 16.4107 16.5922 16.4109C16.5666 16.4112 16.5412 16.4165 16.5177 16.4267C16.4942 16.4369 16.4729 16.4516 16.4552 16.4701C16.1355 16.7898 15.4516 16.903 14.9633 16.903C14.475 16.903 13.7915 16.7898 13.4722 16.4701C13.4544 16.4522 13.4331 16.438 13.4098 16.4283C13.3865 16.4186 13.3614 16.4137 13.3361 16.4136C13.3109 16.4136 13.2858 16.4186 13.2625 16.4282C13.2391 16.4379 13.2179 16.452 13.2 16.4699C13.1821 16.4878 13.1679 16.509 13.1582 16.5323C13.1485 16.5557 13.1435 16.5807 13.1435 16.606C13.1435 16.6313 13.1485 16.6563 13.1581 16.6797C13.1678 16.703 13.1819 16.7242 13.1998 16.7421C13.7062 17.2474 14.6779 17.2878 14.9633 17.2878ZM16.1837 15.3975C16.3059 15.4791 16.4494 15.5227 16.5963 15.5227C16.7931 15.5225 16.9819 15.4442 17.1211 15.305C17.2603 15.1658 17.3386 14.977 17.3388 14.7802C17.3388 14.6333 17.2952 14.4897 17.2136 14.3676C17.1321 14.2455 17.0161 14.1504 16.8804 14.0942C16.7447 14.038 16.5954 14.0233 16.4514 14.0519C16.3074 14.0806 16.1751 14.1513 16.0712 14.2551C15.9674 14.359 15.8967 14.4913 15.868 14.6353C15.8394 14.7793 15.8541 14.9286 15.9103 15.0643C15.9665 15.2 16.0616 15.3159 16.1837 15.3975Z" fill="white"/>
</svg>
