<svg width="29" height="29" viewBox="0 0 29 29" fill="none" xmlns="http://www.w3.org/2000/svg">
<rect x="0.619141" width="28.0714" height="28.0714" rx="14.0357" fill="#2D2D30" fill-opacity="0.7"/>
<path d="M21.7839 9.85294C21.2537 10.0855 20.6887 10.2397 20.0996 10.3146C20.7056 9.95274 21.1681 9.38419 21.3855 8.69889C20.8206 9.03574 20.1967 9.27368 19.5319 9.40647C18.9955 8.83523 18.2309 8.48145 17.3967 8.48145C15.7784 8.48145 14.4755 9.79501 14.4755 11.4053C14.4755 11.637 14.4951 11.8598 14.5432 12.0719C12.1131 11.9534 9.9627 10.7886 8.51814 9.01436C8.26594 9.45191 8.11801 9.95274 8.11801 10.4919C8.11801 11.5042 8.63934 12.4016 9.41642 12.9212C8.94679 12.9123 8.48606 12.7759 8.09573 12.5612C8.09573 12.5701 8.09573 12.5817 8.09573 12.5932C8.09573 14.0137 9.10898 15.1936 10.4377 15.4654C10.1998 15.5305 9.94042 15.5617 9.6713 15.5617C9.48415 15.5617 9.29523 15.551 9.11789 15.5118C9.49663 16.6694 10.5714 17.5204 11.8493 17.5481C10.8548 18.3261 9.59198 18.7948 8.22495 18.7948C7.98523 18.7948 7.75531 18.7841 7.52539 18.7547C8.82024 19.5897 10.3548 20.0665 12.0097 20.0665C17.3887 20.0665 20.3295 15.6107 20.3295 11.7484C20.3295 11.6192 20.3251 11.4944 20.3188 11.3706C20.899 10.9589 21.3864 10.4447 21.7839 9.85294Z" fill="white"/>
</svg>
